Courier Prime Bold Italic.ufo
<glyph name="numbersign" format="1">
  <advance width="1228"/>
  <unicode hex="0023"/>
  <outline>
    <contour>
      <point x="1049" y="1209"/>
      <point x="1017" y="1199"/>
      <point x="1007" y="1176" type="curve" smooth="yes"/>
      <point x="520" y="45" type="line" smooth="yes"/>
      <point x="502" y="4"/>
      <point x="561" y="-22"/>
      <point x="631" y="-22" type="curve" smooth="yes"/>
      <point x="672" y="-22"/>
      <point x="704" y="-12"/>
      <point x="714" y="11" type="curve" smooth="yes"/>
      <point x="1201" y="1142" type="line" smooth="yes"/>
      <point x="1219" y="1183"/>
      <point x="1160" y="1209"/>
      <point x="1090" y="1209" type="curve" smooth="yes"/>
    </contour>
    <contour>
      <point x="128" y="482" type="line" smooth="yes"/>
      <point x="83" y="482"/>
      <point x="62" y="464"/>
      <point x="45" y="369" type="curve" smooth="yes"/>
      <point x="28" y="274"/>
      <point x="43" y="257"/>
      <point x="88" y="257" type="curve" smooth="yes"/>
      <point x="1000" y="257" type="line" smooth="yes"/>
      <point x="1045" y="257"/>
      <point x="1066" y="274"/>
      <point x="1083" y="369" type="curve" smooth="yes"/>
      <point x="1100" y="464"/>
      <point x="1085" y="482"/>
      <point x="1040" y="482" type="curve" smooth="yes"/>
    </contour>
    <contour>
      <point x="625" y="1209"/>
      <point x="593" y="1199"/>
      <point x="583" y="1176" type="curve" smooth="yes"/>
      <point x="96" y="45" type="line" smooth="yes"/>
      <point x="78" y="4"/>
      <point x="137" y="-22"/>
      <point x="207" y="-22" type="curve" smooth="yes"/>
      <point x="248" y="-22"/>
      <point x="280" y="-12"/>
      <point x="290" y="11" type="curve" smooth="yes"/>
      <point x="777" y="1142" type="line" smooth="yes"/>
      <point x="795" y="1183"/>
      <point x="736" y="1209"/>
      <point x="666" y="1209" type="curve" smooth="yes"/>
    </contour>
    <contour>
      <point x="299" y="940" type="line" smooth="yes"/>
      <point x="254" y="940"/>
      <point x="233" y="922"/>
      <point x="216" y="827" type="curve" smooth="yes"/>
      <point x="199" y="732"/>
      <point x="214" y="715"/>
      <point x="259" y="715" type="curve" smooth="yes"/>
      <point x="1171" y="715" type="line" smooth="yes"/>
      <point x="1216" y="715"/>
      <point x="1237" y="732"/>
      <point x="1254" y="827" type="curve" smooth="yes"/>
      <point x="1271" y="922"/>
      <point x="1256" y="940"/>
      <point x="1211" y="940" type="curve" smooth="yes"/>
    </contour>
  </outline>
</glyph>
<glyph name="percent" format="1">
  <advance width="1228"/>
  <unicode hex="0025"/>
  <outline>
    <contour>
      <point x="81" y="249" type="line" smooth="yes"/>
      <point x="43" y="218"/>
      <point x="39" y="193"/>
      <point x="83" y="134" type="curve" smooth="yes"/>
      <point x="128" y="75"/>
      <point x="153" y="75"/>
      <point x="191" y="106" type="curve" smooth="yes"/>
      <point x="1215" y="940" type="line" smooth="yes"/>
      <point x="1253" y="971"/>
      <point x="1259" y="996"/>
      <point x="1213" y="1054" type="curve" smooth="yes"/>
      <point x="1168" y="1112"/>
      <point x="1143" y="1114"/>
      <point x="1105" y="1083" type="curve" smooth="yes"/>
    </contour>
    <contour>
      <point x="229" y="1209"/>
      <point x="110" y="1075"/>
      <point x="110" y="908" type="curve" smooth="yes"/>
      <point x="110" y="764"/>
      <point x="209" y="661"/>
      <point x="362" y="661" type="curve" smooth="yes"/>
      <point x="545" y="661"/>
      <point x="664" y="795"/>
      <point x="664" y="962" type="curve" smooth="yes"/>
      <point x="664" y="1106"/>
      <point x="565" y="1209"/>
      <point x="412" y="1209" type="curve" smooth="yes"/>
    </contour>
    <contour>
      <point x="450" y="1030"/>
      <point x="482" y="997"/>
      <point x="482" y="949" type="curve" smooth="yes"/>
      <point x="482" y="886"/>
      <point x="437" y="840"/>
      <point x="376" y="840" type="curve" smooth="yes"/>
      <point x="324" y="840"/>
      <point x="292" y="873"/>
      <point x="292" y="921" type="curve" smooth="yes"/>
      <point x="292" y="984"/>
      <point x="337" y="1030"/>
      <point x="398" y="1030" type="curve" smooth="yes"/>
    </contour>
    <contour>
      <point x="750" y="526"/>
      <point x="631" y="392"/>
      <point x="631" y="225" type="curve" smooth="yes"/>
      <point x="631" y="81"/>
      <point x="730" y="-22"/>
      <point x="883" y="-22" type="curve" smooth="yes"/>
      <point x="1066" y="-22"/>
      <point x="1185" y="112"/>
      <point x="1185" y="279" type="curve" smooth="yes"/>
      <point x="1185" y="423"/>
      <point x="1086" y="526"/>
      <point x="933" y="526" type="curve" smooth="yes"/>
    </contour>
    <contour>
      <point x="971" y="347"/>
      <point x="1003" y="314"/>
      <point x="1003" y="266" type="curve" smooth="yes"/>
      <point x="1003" y="203"/>
      <point x="958" y="157"/>
      <point x="897" y="157" type="curve" smooth="yes"/>
      <point x="845" y="157"/>
      <point x="813" y="190"/>
      <point x="813" y="238" type="curve" smooth="yes"/>
      <point x="813" y="301"/>
      <point x="858" y="347"/>
      <point x="919" y="347" type="curve" smooth="yes"/>
    </contour>
  </outline>
</glyph>
<glyph name="parenleft" format="1">
  <advance width="1228"/>
  <unicode hex="0028"/>
  <outline>
    <contour>
      <point x="500" y="1148"/>
      <point x="266" y="773"/>
      <point x="266" y="361" type="curve" smooth="yes"/>
      <point x="266" y="24"/>
      <point x="446" y="-214"/>
      <point x="641" y="-337" type="curve" smooth="yes"/>
      <point x="678" y="-360"/>
      <point x="728" y="-326"/>
      <point x="764" y="-280" type="curve" smooth="yes"/>
      <point x="801" y="-233"/>
      <point x="822" y="-173"/>
      <point x="794" y="-153" type="curve" smooth="yes"/>
      <point x="606" y="-20"/>
      <point x="512" y="148"/>
      <point x="512" y="366" type="curve" smooth="yes"/>
      <point x="512" y="730"/>
      <point x="715" y="975"/>
      <point x="1057" y="1161" type="curve" smooth="yes"/>
      <point x="1092" y="1180"/>
      <point x="1086" y="1247"/>
      <point x="1059" y="1302" type="curve" smooth="yes"/>
      <point x="1033" y="1355"/>
      <point x="988" y="1398"/>
      <point x="943" y="1375" type="curve" smooth="yes"/>
    </contour>
  </outline>
</glyph>
<glyph name="four" format="1">
  <advance width="1228"/>
  <unicode hex="0034"/>
  <outline>
    <contour>
      <point x="831" y="1209"/>
      <point x="783" y="1191"/>
      <point x="742" y="1150" type="curve" smooth="yes"/>
      <point x="169" y="571" type="line" smooth="yes"/>
      <point x="155" y="556"/>
      <point x="141" y="520"/>
      <point x="133" y="472" type="curve" smooth="yes"/>
      <point x="118" y="387"/>
      <point x="133" y="370"/>
      <point x="178" y="370" type="curve" smooth="yes"/>
      <point x="608" y="370" type="line"/>
      <point x="579" y="205" type="line"/>
      <point x="409" y="205" type="line" smooth="yes"/>
      <point x="364" y="205"/>
      <point x="342" y="187"/>
      <point x="327" y="102" type="curve" smooth="yes"/>
      <point x="312" y="17"/>
      <point x="328" y="0"/>
      <point x="373" y="0" type="curve" smooth="yes"/>
      <point x="935" y="0" type="line" smooth="yes"/>
      <point x="980" y="0"/>
      <point x="1000" y="17"/>
      <point x="1015" y="102" type="curve" smooth="yes"/>
      <point x="1030" y="187"/>
      <point x="1016" y="205"/>
      <point x="971" y="205" type="curve" smooth="yes"/>
      <point x="829" y="205" type="line"/>
      <point x="858" y="370" type="line"/>
      <point x="1030" y="370" type="line" smooth="yes"/>
      <point x="1075" y="370"/>
      <point x="1096" y="387"/>
      <point x="1111" y="472" type="curve" smooth="yes"/>
      <point x="1126" y="557"/>
      <point x="1111" y="575"/>
      <point x="1066" y="575" type="curve" smooth="yes"/>
      <point x="894" y="575" type="line"/>
      <point x="990" y="1119" type="line" smooth="yes"/>
      <point x="999" y="1173"/>
      <point x="983" y="1209"/>
      <point x="901" y="1209" type="curve" smooth="yes"/>
    </contour>
    <contour>
      <point x="653" y="575" type="line"/>
      <point x="434" y="575" type="line"/>
      <point x="720" y="867" type="line"/>
    </contour>
  </outline>
</glyph>
<glyph name="six" format="1">
  <advance width="1228"/>
  <unicode hex="0036"/>
  <outline>
    <contour>
      <point x="458" y="1205"/>
      <point x="177" y="843"/>
      <point x="177" y="418" type="curve" smooth="yes"/>
      <point x="177" y="169"/>
      <point x="297" y="-22"/>
      <point x="592" y="-22" type="curve" smooth="yes"/>
      <point x="892" y="-22"/>
      <point x="1073" y="190"/>
      <point x="1073" y="410" type="curve" smooth="yes"/>
      <point x="1073" y="605"/>
      <point x="944" y="741"/>
      <point x="745" y="741" type="curve" smooth="yes"/>
      <point x="630" y="741"/>
      <point x="542" y="703"/>
      <point x="461" y="634" type="curve"/>
      <point x="536" y="852"/>
      <point x="701" y="959"/>
      <point x="1068" y="967" type="curve" smooth="yes"/>
      <point x="1099" y="968"/>
      <point x="1121" y="1007"/>
      <point x="1121" y="1096" type="curve" smooth="yes"/>
      <point x="1121" y="1175"/>
      <point x="1105" y="1210"/>
      <point x="1069" y="1209" type="curve"/>
    </contour>
    <contour>
      <point x="760" y="529"/>
      <point x="817" y="482"/>
      <point x="817" y="396" type="curve" smooth="yes"/>
      <point x="817" y="295"/>
      <point x="737" y="201"/>
      <point x="595" y="201" type="curve" smooth="yes"/>
      <point x="488" y="201"/>
      <point x="432" y="263"/>
      <point x="432" y="340" type="curve" smooth="yes"/>
      <point x="432" y="440"/>
      <point x="518" y="529"/>
      <point x="660" y="529" type="curve" smooth="yes"/>
    </contour>
  </outline>
</glyph>
<glyph name="nine" format="1">
  <advance width="1228"/>
  <unicode hex="0039"/>
  <outline>
    <contour>
      <point x="404" y="1209"/>
      <point x="223" y="997"/>
      <point x="223" y="777" type="curve" smooth="yes"/>
      <point x="223" y="582"/>
      <point x="352" y="446"/>
      <point x="551" y="446" type="curve" smooth="yes"/>
      <point x="666" y="446"/>
      <point x="754" y="484"/>
      <point x="845" y="553" type="curve"/>
      <point x="766" y="335"/>
      <point x="615" y="238"/>
      <point x="258" y="220" type="curve"/>
      <point x="227" y="218"/>
      <point x="205" y="181"/>
      <point x="205" y="89" type="curve" smooth="yes"/>
      <point x="205" y="13"/>
      <point x="221" y="-23"/>
      <point x="257" y="-22" type="curve"/>
      <point x="865" y="-4"/>
      <point x="1119" y="354"/>
      <point x="1119" y="769" type="curve" smooth="yes"/>
      <point x="1119" y="1018"/>
      <point x="999" y="1209"/>
      <point x="704" y="1209" type="curve" smooth="yes"/>
    </contour>
    <contour>
      <point x="808" y="986"/>
      <point x="864" y="924"/>
      <point x="864" y="847" type="curve" smooth="yes"/>
      <point x="864" y="747"/>
      <point x="778" y="658"/>
      <point x="636" y="658" type="curve" smooth="yes"/>
      <point x="536" y="658"/>
      <point x="479" y="705"/>
      <point x="479" y="791" type="curve" smooth="yes"/>
      <point x="479" y="892"/>
      <point x="559" y="986"/>
      <point x="701" y="986" type="curve" smooth="yes"/>
    </contour>
  </outline>
</glyph>
<glyph name="colon" format="1">
  <advance width="1228"/>
  <unicode hex="003A"/>
  <outline>
    <contour>
      <point x="580" y="946"/>
      <point x="474" y="853"/>
      <point x="474" y="728" type="curve" smooth="yes"/>
      <point x="474" y="634"/>
      <point x="546" y="556"/>
      <point x="646" y="556" type="curve" smooth="yes"/>
      <point x="762" y="556"/>
      <point x="866" y="651"/>
      <point x="866" y="776" type="curve" smooth="yes"/>
      <point x="866" y="869"/>
      <point x="795" y="946"/>
      <point x="696" y="946" type="curve" smooth="yes"/>
    </contour>
    <contour>
      <point x="488" y="368"/>
      <point x="382" y="275"/>
      <point x="382" y="150" type="curve" smooth="yes"/>
      <point x="382" y="56"/>
      <point x="454" y="-22"/>
      <point x="554" y="-22" type="curve" smooth="yes"/>
      <point x="670" y="-22"/>
      <point x="774" y="73"/>
      <point x="774" y="198" type="curve" smooth="yes"/>
      <point x="774" y="291"/>
      <point x="703" y="368"/>
      <point x="604" y="368" type="curve" smooth="yes"/>
    </contour>
  </outline>
</glyph>
<glyph name="semicolon" format="1">
  <advance width="1228"/>
  <unicode hex="003B"/>
  <outline>
    <contour>
      <point x="472" y="354" type="line" smooth="yes"/>
      <point x="444" y="354"/>
      <point x="421" y="340"/>
      <point x="413" y="314" type="curve" smooth="yes"/>
      <point x="248" y="-228" type="line" smooth="yes"/>
      <point x="235" y="-272"/>
      <point x="266" y="-294"/>
      <point x="322" y="-294" type="curve" smooth="yes"/>
      <point x="368" y="-294"/>
      <point x="401" y="-281"/>
      <point x="420" y="-253" type="curve" smooth="yes"/>
      <point x="788" y="291" type="line" smooth="yes"/>
      <point x="811" y="326"/>
      <point x="804" y="354"/>
      <point x="771" y="354" type="curve" smooth="yes"/>
    </contour>
    <contour>
      <point x="580" y="946"/>
      <point x="474" y="853"/>
      <point x="474" y="728" type="curve" smooth="yes"/>
      <point x="474" y="634"/>
      <point x="546" y="556"/>
      <point x="646" y="556" type="curve" smooth="yes"/>
      <point x="762" y="556"/>
      <point x="866" y="651"/>
      <point x="866" y="776" type="curve" smooth="yes"/>
      <point x="866" y="869"/>
      <point x="795" y="946"/>
      <point x="696" y="946" type="curve" smooth="yes"/>
    </contour>
  </outline>
</glyph>
<glyph name="at" format="1">
  <advance width="1228"/>
  <unicode hex="0040"/>
  <outline>
    <contour>
      <point x="318" y="1078"/>
      <point x="24" y="657"/>
      <point x="24" y="285" type="curve" smooth="yes"/>
      <point x="24" y="22"/>
      <point x="188" y="-153"/>
      <point x="475" y="-153" type="curve" smooth="yes"/>
      <point x="585" y="-153"/>
      <point x="704" y="-132"/>
      <point x="780" y="-101" type="curve" smooth="yes"/>
      <point x="802" y="-92"/>
      <point x="813" y="-69"/>
      <point x="805" y="-19" type="curve" smooth="yes"/>
      <point x="796" y="38"/>
      <point x="779" y="48"/>
      <point x="755" y="40" type="curve" smooth="yes"/>
      <point x="684" y="17"/>
      <point x="596" y="0"/>
      <point x="490" y="0" type="curve" smooth="yes"/>
      <point x="289" y="0"/>
      <point x="185" y="116"/>
      <point x="185" y="295" type="curve" smooth="yes"/>
      <point x="185" y="579"/>
      <point x="416" y="925"/>
      <point x="748" y="925" type="curve" smooth="yes"/>
      <point x="950" y="925"/>
      <point x="1062" y="808"/>
      <point x="1062" y="624" type="curve" smooth="yes"/>
      <point x="1062" y="460"/>
      <point x="981" y="278"/>
      <point x="876" y="278" type="curve" smooth="yes"/>
      <point x="849" y="278"/>
      <point x="831" y="297"/>
      <point x="831" y="330" type="curve" smooth="yes"/>
      <point x="831" y="349"/>
      <point x="837" y="374"/>
      <point x="849" y="404" type="curve" smooth="yes"/>
      <point x="976" y="716" type="line" smooth="yes"/>
      <point x="983" y="734"/>
      <point x="968" y="751"/>
      <point x="933" y="761" type="curve" smooth="yes"/>
      <point x="891" y="773"/>
      <point x="869" y="766"/>
      <point x="861" y="754" type="curve" smooth="yes"/>
      <point x="816" y="685" type="line"/>
      <point x="807" y="751"/>
      <point x="775" y="800"/>
      <point x="705" y="800" type="curve" smooth="yes"/>
      <point x="512" y="800"/>
      <point x="309" y="513"/>
      <point x="309" y="303" type="curve" smooth="yes"/>
      <point x="309" y="186"/>
      <point x="374" y="117"/>
      <point x="467" y="117" type="curve" smooth="yes"/>
      <point x="554" y="117"/>
      <point x="628" y="175"/>
      <point x="690" y="261" type="curve"/>
      <point x="697" y="180"/>
      <point x="747" y="122"/>
      <point x="842" y="122" type="curve" smooth="yes"/>
      <point x="1069" y="122"/>
      <point x="1216" y="360"/>
      <point x="1216" y="627" type="curve" smooth="yes"/>
      <point x="1216" y="887"/>
      <point x="1050" y="1078"/>
      <point x="770" y="1078" type="curve" smooth="yes"/>
    </contour>
    <contour>
      <point x="723" y="643"/>
      <point x="739" y="620"/>
      <point x="739" y="580" type="curve" smooth="yes"/>
      <point x="739" y="465"/>
      <point x="613" y="281"/>
      <point x="541" y="281" type="curve" smooth="yes"/>
      <point x="510" y="281"/>
      <point x="489" y="304"/>
      <point x="489" y="348" type="curve" smooth="yes"/>
      <point x="489" y="461"/>
      <point x="610" y="643"/>
      <point x="687" y="643" type="curve" smooth="yes"/>
    </contour>
  </outline>
</glyph>
<glyph name="E" format="1">
  <advance width="1228"/>
  <unicode hex="0045"/>
  <outline>
    <contour>
      <point x="262" y="1187" type="line" smooth="yes"/>
      <point x="217" y="1187"/>
      <point x="196" y="1169"/>
      <point x="181" y="1084" type="curve" smooth="yes"/>
      <point x="166" y="999"/>
      <point x="181" y="982"/>
      <point x="226" y="982" type="curve" smooth="yes"/>
      <point x="323" y="982" type="line"/>
      <point x="186" y="205" type="line"/>
      <point x="89" y="205" type="line" smooth="yes"/>
      <point x="44" y="205"/>
      <point x="22" y="187"/>
      <point x="7" y="102" type="curve" smooth="yes"/>
      <point x="-8" y="17"/>
      <point x="8" y="0"/>
      <point x="53" y="0" type="curve" smooth="yes"/>
      <point x="985" y="0" type="line" smooth="yes"/>
      <point x="1031" y="0"/>
      <point x="1053" y="19"/>
      <point x="1061" y="65" type="curve" smooth="yes"/>
      <point x="1123" y="417" type="line" smooth="yes"/>
      <point x="1131" y="462"/>
      <point x="1110" y="480"/>
      <point x="1020" y="480" type="curve" smooth="yes"/>
      <point x="930" y="480"/>
      <point x="891" y="462"/>
      <point x="883" y="417" type="curve" smooth="yes"/>
      <point x="847" y="215" type="line"/>
      <point x="437" y="215" type="line"/>
      <point x="488" y="504" type="line"/>
      <point x="732" y="504" type="line" smooth="yes"/>
      <point x="777" y="504"/>
      <point x="799" y="526"/>
      <point x="814" y="611" type="curve" smooth="yes"/>
      <point x="829" y="696"/>
      <point x="815" y="719"/>
      <point x="770" y="719" type="curve" smooth="yes"/>
      <point x="526" y="719" type="line"/>
      <point x="571" y="972" type="line"/>
      <point x="971" y="972" type="line"/>
      <point x="944" y="820" type="line" smooth="yes"/>
      <point x="936" y="775"/>
      <point x="956" y="757"/>
      <point x="1041" y="757" type="curve" smooth="yes"/>
      <point x="1126" y="757"/>
      <point x="1166" y="775"/>
      <point x="1174" y="820" type="curve" smooth="yes"/>
      <point x="1227" y="1122" type="line" smooth="yes"/>
      <point x="1235" y="1168"/>
      <point x="1220" y="1187"/>
      <point x="1174" y="1187" type="curve" smooth="yes"/>
    </contour>
    <contour>
      <point x="690" y="716"/>
      <point x="668" y="697"/>
      <point x="660" y="651" type="curve" smooth="yes"/>
      <point x="646" y="573" type="line" smooth="yes"/>
      <point x="638" y="527"/>
      <point x="654" y="508"/>
      <point x="710" y="508" type="curve" smooth="yes"/>
      <point x="766" y="508"/>
      <point x="788" y="527"/>
      <point x="796" y="573" type="curve" smooth="yes"/>
      <point x="810" y="651" type="line" smooth="yes"/>
      <point x="818" y="697"/>
      <point x="802" y="716"/>
      <point x="746" y="716" type="curve" smooth="yes"/>
    </contour>
  </outline>
</glyph>
<glyph name="F" format="1">
  <advance width="1228"/>
  <unicode hex="0046"/>
  <outline>
    <contour>
      <point x="262" y="1187" type="line" smooth="yes"/>
      <point x="217" y="1187"/>
      <point x="196" y="1169"/>
      <point x="181" y="1084" type="curve" smooth="yes"/>
      <point x="166" y="999"/>
      <point x="181" y="982"/>
      <point x="226" y="982" type="curve" smooth="yes"/>
      <point x="353" y="982" type="line"/>
      <point x="216" y="205" type="line"/>
      <point x="89" y="205" type="line" smooth="yes"/>
      <point x="44" y="205"/>
      <point x="22" y="187"/>
      <point x="7" y="102" type="curve" smooth="yes"/>
      <point x="-8" y="17"/>
      <point x="8" y="0"/>
      <point x="53" y="0" type="curve" smooth="yes"/>
      <point x="647" y="0" type="line" smooth="yes"/>
      <point x="692" y="0"/>
      <point x="712" y="17"/>
      <point x="727" y="102" type="curve" smooth="yes"/>
      <point x="742" y="187"/>
      <point x="728" y="205"/>
      <point x="683" y="205" type="curve" smooth="yes"/>
      <point x="466" y="205" type="line"/>
      <point x="509" y="452" type="line"/>
      <point x="813" y="452" type="line" smooth="yes"/>
      <point x="858" y="452"/>
      <point x="880" y="474"/>
      <point x="895" y="559" type="curve" smooth="yes"/>
      <point x="910" y="644"/>
      <point x="896" y="667"/>
      <point x="851" y="667" type="curve" smooth="yes"/>
      <point x="547" y="667" type="line"/>
      <point x="601" y="972" type="line"/>
      <point x="991" y="972" type="line"/>
      <point x="964" y="820" type="line" smooth="yes"/>
      <point x="956" y="775"/>
      <point x="976" y="757"/>
      <point x="1061" y="757" type="curve" smooth="yes"/>
      <point x="1146" y="757"/>
      <point x="1186" y="775"/>
      <point x="1194" y="820" type="curve" smooth="yes"/>
      <point x="1247" y="1122" type="line" smooth="yes"/>
      <point x="1255" y="1168"/>
      <point x="1240" y="1187"/>
      <point x="1194" y="1187" type="curve" smooth="yes"/>
    </contour>
    <contour>
      <point x="771" y="664"/>
      <point x="749" y="645"/>
      <point x="741" y="599" type="curve" smooth="yes"/>
      <point x="727" y="521" type="line" smooth="yes"/>
      <point x="719" y="475"/>
      <point x="735" y="456"/>
      <point x="791" y="456" type="curve" smooth="yes"/>
      <point x="847" y="456"/>
      <point x="869" y="475"/>
      <point x="877" y="521" type="curve" smooth="yes"/>
      <point x="891" y="599" type="line" smooth="yes"/>
      <point x="899" y="645"/>
      <point x="883" y="664"/>
      <point x="827" y="664" type="curve" smooth="yes"/>
    </contour>
  </outline>
</glyph>
<glyph name="P" format="1">
  <advance width="1228"/>
  <unicode hex="0050"/>
  <outline>
    <contour>
      <point x="262" y="1187" type="line" smooth="yes"/>
      <point x="217" y="1187"/>
      <point x="196" y="1169"/>
      <point x="181" y="1084" type="curve" smooth="yes"/>
      <point x="166" y="999"/>
      <point x="181" y="982"/>
      <point x="226" y="982" type="curve" smooth="yes"/>
      <point x="373" y="982" type="line"/>
      <point x="236" y="205" type="line"/>
      <point x="89" y="205" type="line" smooth="yes"/>
      <point x="44" y="205"/>
      <point x="22" y="187"/>
      <point x="7" y="102" type="curve" smooth="yes"/>
      <point x="-8" y="17"/>
      <point x="8" y="0"/>
      <point x="53" y="0" type="curve" smooth="yes"/>
      <point x="667" y="0" type="line" smooth="yes"/>
      <point x="712" y="0"/>
      <point x="732" y="17"/>
      <point x="747" y="102" type="curve" smooth="yes"/>
      <point x="762" y="187"/>
      <point x="748" y="205"/>
      <point x="703" y="205" type="curve" smooth="yes"/>
      <point x="486" y="205" type="line"/>
      <point x="517" y="382" type="line"/>
      <point x="677" y="382" type="line" smooth="yes"/>
      <point x="870" y="382"/>
      <point x="1008" y="430"/>
      <point x="1096" y="529" type="curve" smooth="yes"/>
      <point x="1176" y="619"/>
      <point x="1209" y="748"/>
      <point x="1209" y="857" type="curve" smooth="yes"/>
      <point x="1209" y="1061"/>
      <point x="1070" y="1187"/>
      <point x="799" y="1187" type="curve" smooth="yes"/>
    </contour>
    <contour>
      <point x="878" y="972"/>
      <point x="951" y="927"/>
      <point x="951" y="829" type="curve" smooth="yes"/>
      <point x="951" y="774"/>
      <point x="932" y="712"/>
      <point x="895" y="672" type="curve" smooth="yes"/>
      <point x="848" y="621"/>
      <point x="774" y="597"/>
      <point x="674" y="597" type="curve" smooth="yes"/>
      <point x="555" y="597" type="line"/>
      <point x="621" y="972" type="line"/>
      <point x="740" y="972" type="line" smooth="yes"/>
    </contour>
  </outline>
</glyph>
<glyph name="V" format="1">
  <advance width="1228"/>
  <unicode hex="0056"/>
  <outline>
    <contour>
      <point x="902" y="1187" type="line" smooth="yes"/>
      <point x="857" y="1187"/>
      <point x="836" y="1169"/>
      <point x="821" y="1084" type="curve" smooth="yes"/>
      <point x="806" y="999"/>
      <point x="821" y="982"/>
      <point x="866" y="982" type="curve" smooth="yes"/>
      <point x="937" y="982" type="line"/>
      <point x="600" y="369" type="line"/>
      <point x="493" y="982" type="line"/>
      <point x="582" y="982" type="line" smooth="yes"/>
      <point x="627" y="982"/>
      <point x="648" y="999"/>
      <point x="663" y="1084" type="curve" smooth="yes"/>
      <point x="678" y="1169"/>
      <point x="663" y="1187"/>
      <point x="618" y="1187" type="curve" smooth="yes"/>
      <point x="192" y="1187" type="line" smooth="yes"/>
      <point x="147" y="1187"/>
      <point x="126" y="1169"/>
      <point x="111" y="1084" type="curve" smooth="yes"/>
      <point x="96" y="999"/>
      <point x="111" y="982"/>
      <point x="156" y="982" type="curve" smooth="yes"/>
      <point x="233" y="982" type="line"/>
      <point x="417" y="43" type="line" smooth="yes"/>
      <point x="426" y="-3"/>
      <point x="454" y="-22"/>
      <point x="537" y="-22" type="curve" smooth="yes"/>
      <point x="620" y="-22"/>
      <point x="655" y="-4"/>
      <point x="681" y="43" type="curve" smooth="yes"/>
      <point x="1210" y="982" type="line"/>
      <point x="1278" y="982" type="line" smooth="yes"/>
      <point x="1323" y="982"/>
      <point x="1344" y="999"/>
      <point x="1359" y="1084" type="curve" smooth="yes"/>
      <point x="1374" y="1169"/>
      <point x="1359" y="1187"/>
      <point x="1314" y="1187" type="curve" smooth="yes"/>
    </contour>
  </outline>
</glyph>
<glyph name="W" format="1">
  <advance width="1228"/>
  <unicode hex="0057"/>
  <outline>
    <contour>
      <point x="940" y="1187" type="line" smooth="yes"/>
      <point x="895" y="1187"/>
      <point x="874" y="1169"/>
      <point x="859" y="1084" type="curve" smooth="yes"/>
      <point x="844" y="999"/>
      <point x="859" y="982"/>
      <point x="904" y="982" type="curve" smooth="yes"/>
      <point x="1008" y="982" type="line"/>
      <point x="849" y="408" type="line"/>
      <point x="779" y="833" type="line" smooth="yes"/>
      <point x="775" y="859"/>
      <point x="755" y="873"/>
      <point x="686" y="873" type="curve" smooth="yes"/>
      <point x="618" y="873"/>
      <point x="598" y="852"/>
      <point x="584" y="826" type="curve" smooth="yes"/>
      <point x="366" y="408" type="line"/>
      <point x="412" y="982" type="line"/>
      <point x="530" y="982" type="line" smooth="yes"/>
      <point x="575" y="982"/>
      <point x="596" y="999"/>
      <point x="611" y="1084" type="curve" smooth="yes"/>
      <point x="626" y="1169"/>
      <point x="611" y="1187"/>
      <point x="566" y="1187" type="curve" smooth="yes"/>
      <point x="182" y="1187" type="line" smooth="yes"/>
      <point x="137" y="1187"/>
      <point x="116" y="1169"/>
      <point x="101" y="1084" type="curve" smooth="yes"/>
      <point x="86" y="999"/>
      <point x="101" y="982"/>
      <point x="146" y="982" type="curve" smooth="yes"/>
      <point x="195" y="982" type="line"/>
      <point x="127" y="43" type="line" smooth="yes"/>
      <point x="124" y="-5"/>
      <point x="144" y="-22"/>
      <point x="235" y="-22" type="curve" smooth="yes"/>
      <point x="326" y="-22"/>
      <point x="361" y="-3"/>
      <point x="385" y="43" type="curve" smooth="yes"/>
      <point x="630" y="514" type="line"/>
      <point x="707" y="43" type="line" smooth="yes"/>
      <point x="715" y="-2"/>
      <point x="742" y="-22"/>
      <point x="833" y="-22" type="curve" smooth="yes"/>
      <point x="924" y="-22"/>
      <point x="951" y="-6"/>
      <point x="965" y="43" type="curve" smooth="yes"/>
      <point x="1233" y="982" type="line"/>
      <point x="1288" y="982" type="line" smooth="yes"/>
      <point x="1333" y="982"/>
      <point x="1354" y="999"/>
      <point x="1369" y="1084" type="curve" smooth="yes"/>
      <point x="1384" y="1169"/>
      <point x="1369" y="1187"/>
      <point x="1324" y="1187" type="curve" smooth="yes"/>
    </contour>
  </outline>
</glyph>
<glyph name="backslash" format="1">
  <advance width="1228"/>
  <unicode hex="005C"/>
  <outline>
    <contour>
      <point x="377" y="1399"/>
      <point x="311" y="1365"/>
      <point x="324" y="1312" type="curve" smooth="yes"/>
      <point x="721" y="-317" type="line" smooth="yes"/>
      <point x="728" y="-346"/>
      <point x="751" y="-360"/>
      <point x="790" y="-360" type="curve" smooth="yes"/>
      <point x="893" y="-360"/>
      <point x="959" y="-326"/>
      <point x="946" y="-273" type="curve" smooth="yes"/>
      <point x="549" y="1356" type="line" smooth="yes"/>
      <point x="542" y="1385"/>
      <point x="519" y="1399"/>
      <point x="480" y="1399" type="curve" smooth="yes"/>
    </contour>
  </outline>
</glyph>
<glyph name="bracketright" format="1">
  <advance width="1228"/>
  <unicode hex="005D"/>
  <outline>
    <contour>
      <point x="537" y="1372" type="line" smooth="yes"/>
      <point x="492" y="1372"/>
      <point x="469" y="1352"/>
      <point x="454" y="1259" type="curve" smooth="yes"/>
      <point x="439" y="1166"/>
      <point x="452" y="1147"/>
      <point x="497" y="1147" type="curve" smooth="yes"/>
      <point x="820" y="1147" type="line"/>
      <point x="599" y="-108" type="line"/>
      <point x="276" y="-108" type="line" smooth="yes"/>
      <point x="231" y="-108"/>
      <point x="207" y="-135"/>
      <point x="193" y="-220" type="curve" smooth="yes"/>
      <point x="177" y="-313"/>
      <point x="191" y="-333"/>
      <point x="236" y="-333" type="curve" smooth="yes"/>
      <point x="746" y="-333" type="line" smooth="yes"/>
      <point x="791" y="-333"/>
      <point x="812" y="-315"/>
      <point x="820" y="-270" type="curve" smooth="yes"/>
      <point x="1099" y="1309" type="line" smooth="yes"/>
      <point x="1107" y="1354"/>
      <point x="1092" y="1372"/>
      <point x="1047" y="1372" type="curve" smooth="yes"/>
    </contour>
  </outline>
</glyph>
<glyph name="a" format="1">
  <advance width="1228"/>
  <unicode hex="0061"/>
  <outline>
    <contour>
      <point x="271" y="946"/>
      <point x="106" y="632"/>
      <point x="106" y="380" type="curve" smooth="yes"/>
      <point x="106" y="144"/>
      <point x="245" y="-22"/>
      <point x="464" y="-22" type="curve" smooth="yes"/>
      <point x="620" y="-22"/>
      <point x="751" y="37"/>
      <point x="861" y="171" type="curve"/>
      <point x="816" y="181" type="line"/>
      <point x="835" y="52"/>
      <point x="928" y="0"/>
      <point x="1051" y="0" type="curve" smooth="yes"/>
      <point x="1075" y="0" type="line" smooth="yes"/>
      <point x="1120" y="0"/>
      <point x="1143" y="20"/>
      <point x="1158" y="113" type="curve" smooth="yes"/>
      <point x="1173" y="206"/>
      <point x="1160" y="225"/>
      <point x="1115" y="225" type="curve" smooth="yes"/>
      <point x="1110" y="225" type="line" smooth="yes"/>
      <point x="1047" y="225"/>
      <point x="1016" y="261"/>
      <point x="1032" y="350" type="curve" smooth="yes"/>
      <point x="1122" y="861" type="line" smooth="yes"/>
      <point x="1130" y="906"/>
      <point x="1115" y="924"/>
      <point x="1070" y="924" type="curve" smooth="yes"/>
      <point x="976" y="924" type="line" smooth="yes"/>
      <point x="931" y="924"/>
      <point x="909" y="906"/>
      <point x="902" y="861" type="curve" smooth="yes"/>
      <point x="889" y="782" type="line"/>
      <point x="840" y="881"/>
      <point x="737" y="946"/>
      <point x="614" y="946" type="curve" smooth="yes"/>
    </contour>
    <contour>
      <point x="734" y="718"/>
      <point x="815" y="647"/>
      <point x="815" y="522" type="curve" smooth="yes"/>
      <point x="815" y="377"/>
      <point x="715" y="206"/>
      <point x="535" y="206" type="curve" smooth="yes"/>
      <point x="430" y="206"/>
      <point x="372" y="279"/>
      <point x="372" y="391" type="curve" smooth="yes"/>
      <point x="372" y="525"/>
      <point x="443" y="718"/>
      <point x="625" y="718" type="curve" smooth="yes"/>
    </contour>
  </outline>
</glyph>
<glyph name="c" format="1">
  <advance width="1228"/>
  <unicode hex="0063"/>
  <outline>
    <contour>
      <point x="966" y="946"/>
      <point x="926" y="928"/>
      <point x="918" y="883" type="curve" smooth="yes"/>
      <point x="908" y="824" type="line"/>
      <point x="876" y="904"/>
      <point x="787" y="946"/>
      <point x="680" y="946" type="curve" smooth="yes"/>
      <point x="326" y="946"/>
      <point x="134" y="654"/>
      <point x="134" y="389" type="curve" smooth="yes"/>
      <point x="134" y="154"/>
      <point x="301" y="-22"/>
      <point x="575" y="-22" type="curve" smooth="yes"/>
      <point x="714" y="-22"/>
      <point x="874" y="19"/>
      <point x="1005" y="83" type="curve" smooth="yes"/>
      <point x="1051" y="106"/>
      <point x="1064" y="146"/>
      <point x="1035" y="225" type="curve" smooth="yes"/>
      <point x="1007" y="300"/>
      <point x="973" y="322"/>
      <point x="930" y="299" type="curve" smooth="yes"/>
      <point x="822" y="242"/>
      <point x="706" y="205"/>
      <point x="600" y="205" type="curve" smooth="yes"/>
      <point x="474" y="205"/>
      <point x="400" y="280"/>
      <point x="400" y="402" type="curve" smooth="yes"/>
      <point x="400" y="546"/>
      <point x="493" y="719"/>
      <point x="690" y="719" type="curve" smooth="yes"/>
      <point x="809" y="719"/>
      <point x="856" y="644"/>
      <point x="842" y="562" type="curve" smooth="yes"/>
      <point x="834" y="517"/>
      <point x="853" y="499"/>
      <point x="948" y="499" type="curve" smooth="yes"/>
      <point x="1043" y="499"/>
      <point x="1084" y="517"/>
      <point x="1092" y="562" type="curve" smooth="yes"/>
      <point x="1148" y="883" type="line" smooth="yes"/>
      <point x="1156" y="928"/>
      <point x="1136" y="946"/>
      <point x="1051" y="946" type="curve" smooth="yes"/>
    </contour>
  </outline>
</glyph>
<glyph name="d" format="1">
  <advance width="1228"/>
  <unicode hex="0064"/>
  <outline>
    <contour>
      <point x="805" y="1312" type="line" smooth="yes"/>
      <point x="760" y="1312"/>
      <point x="739" y="1294"/>
      <point x="724" y="1209" type="curve" smooth="yes"/>
      <point x="709" y="1124"/>
      <point x="724" y="1107"/>
      <point x="769" y="1107" type="curve" smooth="yes"/>
      <point x="916" y="1107" type="line"/>
      <point x="866" y="824" type="line"/>
      <point x="810" y="899"/>
      <point x="720" y="946"/>
      <point x="614" y="946" type="curve" smooth="yes"/>
      <point x="268" y="946"/>
      <point x="103" y="632"/>
      <point x="103" y="380" type="curve" smooth="yes"/>
      <point x="103" y="144"/>
      <point x="242" y="-22"/>
      <point x="464" y="-22" type="curve" smooth="yes"/>
      <point x="585" y="-22"/>
      <point x="691" y="38"/>
      <point x="785" y="138" type="curve"/>
      <point x="772" y="63" type="line" smooth="yes"/>
      <point x="764" y="18"/>
      <point x="779" y="0"/>
      <point x="824" y="0" type="curve" smooth="yes"/>
      <point x="1058" y="0" type="line" smooth="yes"/>
      <point x="1103" y="0"/>
      <point x="1124" y="18"/>
      <point x="1139" y="103" type="curve" smooth="yes"/>
      <point x="1154" y="188"/>
      <point x="1139" y="205"/>
      <point x="1094" y="205" type="curve" smooth="yes"/>
      <point x="1007" y="205" type="line"/>
      <point x="1191" y="1249" type="line" smooth="yes"/>
      <point x="1199" y="1294"/>
      <point x="1184" y="1312"/>
      <point x="1139" y="1312" type="curve" smooth="yes"/>
    </contour>
    <contour>
      <point x="733" y="719"/>
      <point x="815" y="650"/>
      <point x="815" y="522" type="curve" smooth="yes"/>
      <point x="815" y="375"/>
      <point x="714" y="205"/>
      <point x="534" y="205" type="curve" smooth="yes"/>
      <point x="429" y="205"/>
      <point x="369" y="276"/>
      <point x="369" y="391" type="curve" smooth="yes"/>
      <point x="369" y="520"/>
      <point x="442" y="719"/>
      <point x="624" y="719" type="curve" smooth="yes"/>
    </contour>
  </outline>
</glyph>
<glyph name="l" format="1">
  <advance width="1228"/>
  <unicode hex="006C"/>
  <outline>
    <contour>
      <point x="341" y="1312" type="line" smooth="yes"/>
      <point x="296" y="1312"/>
      <point x="275" y="1294"/>
      <point x="260" y="1209" type="curve" smooth="yes"/>
      <point x="245" y="1124"/>
      <point x="260" y="1107"/>
      <point x="305" y="1107" type="curve" smooth="yes"/>
      <point x="538" y="1107" type="line"/>
      <point x="408" y="368" type="line" smooth="yes"/>
      <point x="402" y="334"/>
      <point x="399" y="302"/>
      <point x="399" y="272" type="curve" smooth="yes"/>
      <point x="399" y="86"/>
      <point x="511" y="-22"/>
      <point x="706" y="-22" type="curve" smooth="yes"/>
      <point x="821" y="-22"/>
      <point x="912" y="2"/>
      <point x="1040" y="74" type="curve" smooth="yes"/>
      <point x="1094" y="105"/>
      <point x="1087" y="146"/>
      <point x="1060" y="204" type="curve" smooth="yes"/>
      <point x="1030" y="269"/>
      <point x="1001" y="294"/>
      <point x="951" y="267" type="curve" smooth="yes"/>
      <point x="869" y="223"/>
      <point x="814" y="205"/>
      <point x="748" y="205" type="curve" smooth="yes"/>
      <point x="685" y="205"/>
      <point x="651" y="236"/>
      <point x="651" y="308" type="curve" smooth="yes"/>
      <point x="651" y="324"/>
      <point x="653" y="342"/>
      <point x="656" y="361" type="curve" smooth="yes"/>
      <point x="813" y="1249" type="line" smooth="yes"/>
      <point x="821" y="1294"/>
      <point x="806" y="1312"/>
      <point x="761" y="1312" type="curve" smooth="yes"/>
    </contour>
  </outline>
</glyph>
<glyph name="braceleft" format="1">
  <advance width="1228"/>
  <unicode hex="007B"/>
  <outline>
    <contour>
      <point x="749" y="1312"/>
      <point x="591" y="1208"/>
      <point x="545" y="949" type="curve" smooth="yes"/>
      <point x="513" y="770" type="line" smooth="yes"/>
      <point x="492" y="650"/>
      <point x="427" y="584"/>
      <point x="300" y="584" type="curve" smooth="yes"/>
      <point x="255" y="584"/>
      <point x="234" y="567"/>
      <point x="219" y="482" type="curve" smooth="yes"/>
      <point x="205" y="397"/>
      <point x="219" y="379"/>
      <point x="264" y="379" type="curve" smooth="yes"/>
      <point x="391" y="379"/>
      <point x="433" y="313"/>
      <point x="412" y="193" type="curve" smooth="yes"/>
      <point x="380" y="10" type="line" smooth="yes"/>
      <point x="335" y="-247"/>
      <point x="448" y="-393"/>
      <point x="715" y="-393" type="curve" smooth="yes"/>
      <point x="760" y="-393"/>
      <point x="781" y="-375"/>
      <point x="796" y="-290" type="curve" smooth="yes"/>
      <point x="811" y="-205"/>
      <point x="796" y="-188"/>
      <point x="751" y="-188" type="curve" smooth="yes"/>
      <point x="647" y="-188"/>
      <point x="605" y="-131"/>
      <point x="628" y="2" type="curve" smooth="yes"/>
      <point x="659" y="183" type="line" smooth="yes"/>
      <point x="683" y="320"/>
      <point x="638" y="420"/>
      <point x="552" y="472" type="curve"/>
      <point x="653" y="522"/>
      <point x="734" y="603"/>
      <point x="758" y="740" type="curve" smooth="yes"/>
      <point x="789" y="917" type="line" smooth="yes"/>
      <point x="812" y="1050"/>
      <point x="876" y="1107"/>
      <point x="980" y="1107" type="curve" smooth="yes"/>
      <point x="1025" y="1107"/>
      <point x="1046" y="1124"/>
      <point x="1061" y="1209" type="curve" smooth="yes"/>
      <point x="1076" y="1294"/>
      <point x="1061" y="1312"/>
      <point x="1016" y="1312" type="curve" smooth="yes"/>
    </contour>
  </outline>
</glyph>
<glyph name="braceright" format="1">
  <advance width="1228"/>
  <unicode hex="007D"/>
  <outline>
    <contour>
      <point x="489" y="1312"/>
      <point x="468" y="1294"/>
      <point x="453" y="1209" type="curve" smooth="yes"/>
      <point x="438" y="1124"/>
      <point x="453" y="1107"/>
      <point x="498" y="1107" type="curve" smooth="yes"/>
      <point x="602" y="1107"/>
      <point x="644" y="1050"/>
      <point x="621" y="917" type="curve" smooth="yes"/>
      <point x="598" y="780" type="line" smooth="yes"/>
      <point x="574" y="643"/>
      <point x="619" y="543"/>
      <point x="705" y="491" type="curve"/>
      <point x="604" y="441"/>
      <point x="523" y="360"/>
      <point x="499" y="223" type="curve" smooth="yes"/>
      <point x="460" y="2" type="line" smooth="yes"/>
      <point x="437" y="-131"/>
      <point x="373" y="-188"/>
      <point x="269" y="-188" type="curve" smooth="yes"/>
      <point x="224" y="-188"/>
      <point x="203" y="-205"/>
      <point x="188" y="-290" type="curve" smooth="yes"/>
      <point x="173" y="-375"/>
      <point x="188" y="-393"/>
      <point x="233" y="-393" type="curve" smooth="yes"/>
      <point x="500" y="-393"/>
      <point x="658" y="-289"/>
      <point x="704" y="-30" type="curve" smooth="yes"/>
      <point x="744" y="193" type="line" smooth="yes"/>
      <point x="765" y="313"/>
      <point x="830" y="379"/>
      <point x="957" y="379" type="curve" smooth="yes"/>
      <point x="1002" y="379"/>
      <point x="1023" y="396"/>
      <point x="1038" y="481" type="curve" smooth="yes"/>
      <point x="1052" y="566"/>
      <point x="1038" y="584"/>
      <point x="993" y="584" type="curve" smooth="yes"/>
      <point x="866" y="584"/>
      <point x="824" y="650"/>
      <point x="845" y="770" type="curve" smooth="yes"/>
      <point x="869" y="909" type="line" smooth="yes"/>
      <point x="914" y="1166"/>
      <point x="801" y="1312"/>
      <point x="534" y="1312" type="curve" smooth="yes"/>
    </contour>
  </outline>
</glyph>
<glyph name="exclamdown" format="1">
  <advance width="1228"/>
  <unicode hex="00A1"/>
  <outline>
    <contour>
      <point x="566" y="420"/>
      <point x="526" y="393"/>
      <point x="511" y="342" type="curve" smooth="yes"/>
      <point x="336" y="-235" type="line" smooth="yes"/>
      <point x="326" y="-270"/>
      <point x="338" y="-285"/>
      <point x="368" y="-285" type="curve" smooth="yes"/>
      <point x="618" y="-285" type="line" smooth="yes"/>
      <point x="648" y="-285"/>
      <point x="666" y="-270"/>
      <point x="668" y="-235" type="curve" smooth="yes"/>
      <point x="697" y="342" type="line" smooth="yes"/>
      <point x="700" y="393"/>
      <point x="670" y="420"/>
      <point x="618" y="420" type="curve" smooth="yes"/>
    </contour>
    <contour>
      <point x="573" y="946"/>
      <point x="471" y="854"/>
      <point x="471" y="733" type="curve" smooth="yes"/>
      <point x="471" y="642"/>
      <point x="541" y="567"/>
      <point x="637" y="567" type="curve" smooth="yes"/>
      <point x="749" y="567"/>
      <point x="852" y="658"/>
      <point x="852" y="779" type="curve" smooth="yes"/>
      <point x="852" y="870"/>
      <point x="783" y="946"/>
      <point x="686" y="946" type="curve" smooth="yes"/>
    </contour>
  </outline>
</glyph>
<glyph name="ordfeminine" format="1">
  <advance width="1228"/>
  <unicode hex="00AA"/>
  <outline>
    <contour>
      <point x="428" y="1209"/>
      <point x="301" y="968"/>
      <point x="301" y="774" type="curve" smooth="yes"/>
      <point x="301" y="602"/>
      <point x="406" y="465"/>
      <point x="586" y="465" type="curve" smooth="yes"/>
      <point x="675" y="465"/>
      <point x="765" y="501"/>
      <point x="840" y="580" type="curve"/>
      <point x="852" y="507"/>
      <point x="907" y="482"/>
      <point x="968" y="482" type="curve" smooth="yes"/>
      <point x="1041" y="482" type="line" smooth="yes"/>
      <point x="1075" y="482"/>
      <point x="1091" y="495"/>
      <point x="1102" y="560" type="curve" smooth="yes"/>
      <point x="1114" y="626"/>
      <point x="1103" y="640"/>
      <point x="1068" y="640" type="curve" smooth="yes"/>
      <point x="1046" y="640" type="line" smooth="yes"/>
      <point x="1013" y="640"/>
      <point x="999" y="664"/>
      <point x="1007" y="705" type="curve" smooth="yes"/>
      <point x="1085" y="1151" type="line" smooth="yes"/>
      <point x="1092" y="1186"/>
      <point x="1076" y="1200"/>
      <point x="1019" y="1200" type="curve" smooth="yes"/>
      <point x="961" y="1200"/>
      <point x="930" y="1186"/>
      <point x="924" y="1151" type="curve" smooth="yes"/>
      <point x="912" y="1079" type="line"/>
      <point x="873" y="1160"/>
      <point x="792" y="1209"/>
      <point x="693" y="1209" type="curve" smooth="yes"/>
    </contour>
    <contour>
      <point x="785" y="1035"/>
      <point x="848" y="982"/>
      <point x="848" y="883" type="curve" smooth="yes"/>
      <point x="848" y="770"/>
      <point x="770" y="640"/>
      <point x="632" y="640" type="curve" smooth="yes"/>
      <point x="551" y="640"/>
      <point x="505" y="694"/>
      <point x="505" y="783" type="curve" smooth="yes"/>
      <point x="505" y="882"/>
      <point x="561" y="1035"/>
      <point x="701" y="1035" type="curve" smooth="yes"/>
    </contour>
  </outline>
</glyph>
<glyph name="acute" format="1">
  <advance width="1228"/>
  <unicode hex="00B4"/>
  <outline>
    <contour>
      <point x="551" y="1145" type="line" smooth="yes"/>
      <point x="525" y="1129"/>
      <point x="517" y="1101"/>
      <point x="528" y="1072" type="curve" smooth="yes"/>
      <point x="539" y="1042"/>
      <point x="564" y="1024"/>
      <point x="596" y="1033" type="curve" smooth="yes"/>
      <point x="1076" y="1158" type="line" smooth="yes"/>
      <point x="1110" y="1167"/>
      <point x="1119" y="1209"/>
      <point x="1079" y="1301" type="curve" smooth="yes"/>
      <point x="1039" y="1392"/>
      <point x="996" y="1414"/>
      <point x="959" y="1392" type="curve" smooth="yes"/>
    </contour>
  </outline>
</glyph>
<glyph name="cedilla" format="1">
  <advance width="1228"/>
  <unicode hex="00B8"/>
  <outline>
    <contour>
      <point x="443" y="28" type="line"/>
      <point x="407" y="-180" type="line" smooth="yes"/>
      <point x="401" y="-215"/>
      <point x="421" y="-224"/>
      <point x="439" y="-221" type="curve" smooth="yes"/>
      <point x="505" y="-209"/>
      <point x="557" y="-215"/>
      <point x="557" y="-258" type="curve" smooth="yes"/>
      <point x="557" y="-291"/>
      <point x="536" y="-322"/>
      <point x="461" y="-322" type="curve" smooth="yes"/>
      <point x="394" y="-322"/>
      <point x="352" y="-308"/>
      <point x="304" y="-288" type="curve" smooth="yes"/>
      <point x="278" y="-277"/>
      <point x="252" y="-308"/>
      <point x="235" y="-346" type="curve" smooth="yes"/>
      <point x="217" y="-386"/>
      <point x="213" y="-420"/>
      <point x="239" y="-431" type="curve" smooth="yes"/>
      <point x="304" y="-458"/>
      <point x="391" y="-472"/>
      <point x="487" y="-472" type="curve" smooth="yes"/>
      <point x="611" y="-472"/>
      <point x="696" y="-445"/>
      <point x="744" y="-389" type="curve" smooth="yes"/>
      <point x="779" y="-350"/>
      <point x="792" y="-292"/>
      <point x="792" y="-250" type="curve" smooth="yes"/>
      <point x="792" y="-156"/>
      <point x="729" y="-89"/>
      <point x="597" y="-93" type="curve"/>
      <point x="618" y="28" type="line"/>
    </contour>
  </outline>
</glyph>
<glyph name="onequarter" format="1">
  <advance width="1228"/>
  <unicode hex="00BC"/>
  <outline>
    <contour>
      <point x="135" y="1261" type="line" smooth="yes"/>
      <point x="98" y="1244"/>
      <point x="92" y="1221"/>
      <point x="110" y="1175" type="curve" smooth="yes"/>
      <point x="131" y="1124"/>
      <point x="153" y="1117"/>
      <point x="184" y="1132" type="curve" smooth="yes"/>
      <point x="417" y="1242" type="line"/>
      <point x="327" y="1298" type="line"/>
      <point x="243" y="826" type="line"/>
      <point x="95" y="826" type="line" smooth="yes"/>
      <point x="64" y="826"/>
      <point x="48" y="804"/>
      <point x="39" y="755" type="curve" smooth="yes"/>
      <point x="30" y="705"/>
      <point x="38" y="684"/>
      <point x="69" y="684" type="curve" smooth="yes"/>
      <point x="540" y="684" type="line" smooth="yes"/>
      <point x="571" y="684"/>
      <point x="587" y="705"/>
      <point x="596" y="755" type="curve" smooth="yes"/>
      <point x="605" y="804"/>
      <point x="596" y="826"/>
      <point x="565" y="826" type="curve" smooth="yes"/>
      <point x="406" y="826" type="line"/>
      <point x="497" y="1344" type="line" smooth="yes"/>
      <point x="505" y="1390"/>
      <point x="456" y="1404"/>
      <point x="419" y="1387" type="curve" smooth="yes"/>
    </contour>
    <contour>
      <point x="91" y="319" type="line" smooth="yes"/>
      <point x="61" y="303"/>
      <point x="58" y="276"/>
      <point x="80" y="230" type="curve" smooth="yes"/>
      <point x="102" y="184"/>
      <point x="124" y="178"/>
      <point x="149" y="190" type="curve" smooth="yes"/>
      <point x="1178" y="711" type="line" smooth="yes"/>
      <point x="1208" y="727"/>
      <point x="1211" y="754"/>
      <point x="1189" y="800" type="curve" smooth="yes"/>
      <point x="1167" y="846"/>
      <point x="1145" y="852"/>
      <point x="1120" y="840" type="curve" smooth="yes"/>
    </contour>
    <contour>
      <point x="1033" y="503"/>
      <point x="997" y="490"/>
      <point x="975" y="466" type="curve" smooth="yes"/>
      <point x="594" y="83" type="line" smooth="yes"/>
      <point x="577" y="66"/>
      <point x="570" y="51"/>
      <point x="570" y="30" type="curve" smooth="yes"/>
      <point x="570" y="-17"/>
      <point x="590" y="-63"/>
      <point x="617" y="-63" type="curve" smooth="yes"/>
      <point x="908" y="-63" type="line"/>
      <point x="887" y="-184" type="line" smooth="yes"/>
      <point x="882" y="-210"/>
      <point x="905" y="-224"/>
      <point x="971" y="-224" type="curve" smooth="yes"/>
      <point x="1030" y="-224"/>
      <point x="1047" y="-210"/>
      <point x="1052" y="-184" type="curve" smooth="yes"/>
      <point x="1074" y="-63" type="line"/>
      <point x="1148" y="-63" type="line" smooth="yes"/>
      <point x="1179" y="-63"/>
      <point x="1196" y="-42"/>
      <point x="1205" y="8" type="curve" smooth="yes"/>
      <point x="1213" y="57"/>
      <point x="1205" y="79"/>
      <point x="1174" y="79" type="curve" smooth="yes"/>
      <point x="1098" y="79" type="line"/>
      <point x="1165" y="457" type="line" smooth="yes"/>
      <point x="1170" y="484"/>
      <point x="1142" y="503"/>
      <point x="1081" y="503" type="curve" smooth="yes"/>
    </contour>
    <contour>
      <point x="933" y="79" type="line"/>
      <point x="783" y="79" type="line"/>
      <point x="985" y="291" type="line"/>
    </contour>
  </outline>
</glyph>
<glyph name="onehalf" format="1">
  <advance width="1228"/>
  <unicode hex="00BD"/>
  <outline>
    <contour>
      <point x="887" y="494"/>
      <point x="798" y="477"/>
      <point x="718" y="440" type="curve" smooth="yes"/>
      <point x="699" y="432"/>
      <point x="688" y="419"/>
      <point x="685" y="403" type="curve" smooth="yes"/>
      <point x="658" y="254" type="line" smooth="yes"/>
      <point x="653" y="228"/>
      <point x="676" y="214"/>
      <point x="734" y="214" type="curve" smooth="yes"/>
      <point x="793" y="214"/>
      <point x="808" y="228"/>
      <point x="813" y="254" type="curve" smooth="yes"/>
      <point x="826" y="328" type="line"/>
      <point x="861" y="342"/>
      <point x="903" y="349"/>
      <point x="940" y="349" type="curve" smooth="yes"/>
      <point x="994" y="349"/>
      <point x="1023" y="319"/>
      <point x="1023" y="275" type="curve" smooth="yes"/>
      <point x="1023" y="224"/>
      <point x="992" y="195"/>
      <point x="911" y="138" type="curve" smooth="yes"/>
      <point x="621" y="-64" type="line" smooth="yes"/>
      <point x="603" y="-77"/>
      <point x="588" y="-99"/>
      <point x="582" y="-133" type="curve" smooth="yes"/>
      <point x="572" y="-191"/>
      <point x="586" y="-216"/>
      <point x="612" y="-216" type="curve" smooth="yes"/>
      <point x="1109" y="-216" type="line" smooth="yes"/>
      <point x="1137" y="-216"/>
      <point x="1149" y="-205"/>
      <point x="1154" y="-178" type="curve" smooth="yes"/>
      <point x="1179" y="-36" type="line" smooth="yes"/>
      <point x="1184" y="-9"/>
      <point x="1162" y="4"/>
      <point x="1103" y="4" type="curve" smooth="yes"/>
      <point x="1045" y="4"/>
      <point x="1029" y="-9"/>
      <point x="1025" y="-36" type="curve" smooth="yes"/>
      <point x="1018" y="-74" type="line"/>
      <point x="835" y="-74" type="line"/>
      <point x="1007" y="43" type="line" smooth="yes"/>
      <point x="1122" y="122"/>
      <point x="1194" y="182"/>
      <point x="1194" y="293" type="curve" smooth="yes"/>
      <point x="1194" y="411"/>
      <point x="1113" y="494"/>
      <point x="966" y="494" type="curve" smooth="yes"/>
    </contour>
    <contour>
      <point x="91" y="369" type="line" smooth="yes"/>
      <point x="61" y="353"/>
      <point x="58" y="326"/>
      <point x="80" y="280" type="curve" smooth="yes"/>
      <point x="102" y="234"/>
      <point x="124" y="228"/>
      <point x="149" y="240" type="curve" smooth="yes"/>
      <point x="1178" y="761" type="line" smooth="yes"/>
      <point x="1208" y="777"/>
      <point x="1211" y="804"/>
      <point x="1189" y="850" type="curve" smooth="yes"/>
      <point x="1167" y="896"/>
      <point x="1145" y="902"/>
      <point x="1120" y="890" type="curve" smooth="yes"/>
    </contour>
    <contour>
      <point x="473" y="1394"/>
      <point x="464" y="1392"/>
      <point x="455" y="1389" type="curve" smooth="yes"/>
      <point x="167" y="1298" type="line" smooth="yes"/>
      <point x="130" y="1286"/>
      <point x="118" y="1258"/>
      <point x="130" y="1213" type="curve" smooth="yes"/>
      <point x="145" y="1159"/>
      <point x="166" y="1153"/>
      <point x="198" y="1163" type="curve" smooth="yes"/>
      <point x="330" y="1205" type="line"/>
      <point x="263" y="826" type="line"/>
      <point x="115" y="826" type="line" smooth="yes"/>
      <point x="84" y="826"/>
      <point x="68" y="804"/>
      <point x="59" y="755" type="curve" smooth="yes"/>
      <point x="50" y="705"/>
      <point x="58" y="684"/>
      <point x="89" y="684" type="curve" smooth="yes"/>
      <point x="560" y="684" type="line" smooth="yes"/>
      <point x="591" y="684"/>
      <point x="607" y="705"/>
      <point x="616" y="755" type="curve" smooth="yes"/>
      <point x="625" y="804"/>
      <point x="616" y="826"/>
      <point x="585" y="826" type="curve" smooth="yes"/>
      <point x="426" y="826" type="line"/>
      <point x="517" y="1344" type="line" smooth="yes"/>
      <point x="524" y="1379"/>
      <point x="505" y="1394"/>
      <point x="480" y="1394" type="curve" smooth="yes"/>
    </contour>
  </outline>
</glyph>
<glyph name="threequarters" format="1">
  <advance width="1228"/>
  <unicode hex="00BE"/>
  <outline>
    <contour>
      <point x="351" y="1394"/>
      <point x="264" y="1378"/>
      <point x="187" y="1349" type="curve" smooth="yes"/>
      <point x="169" y="1342"/>
      <point x="158" y="1328"/>
      <point x="155" y="1311" type="curve" smooth="yes"/>
      <point x="131" y="1179" type="line" smooth="yes"/>
      <point x="127" y="1153"/>
      <point x="149" y="1139"/>
      <point x="207" y="1139" type="curve" smooth="yes"/>
      <point x="266" y="1139"/>
      <point x="281" y="1153"/>
      <point x="286" y="1179" type="curve" smooth="yes"/>
      <point x="295" y="1228" type="line"/>
      <point x="336" y="1242"/>
      <point x="377" y="1249"/>
      <point x="413" y="1249" type="curve" smooth="yes"/>
      <point x="480" y="1249"/>
      <point x="511" y="1226"/>
      <point x="511" y="1187" type="curve" smooth="yes"/>
      <point x="511" y="1144"/>
      <point x="481" y="1101"/>
      <point x="393" y="1101" type="curve" smooth="yes"/>
      <point x="332" y="1101" type="line" smooth="yes"/>
      <point x="306" y="1101"/>
      <point x="288" y="1082"/>
      <point x="279" y="1029" type="curve" smooth="yes"/>
      <point x="270" y="976"/>
      <point x="281" y="957"/>
      <point x="307" y="957" type="curve" smooth="yes"/>
      <point x="384" y="957" type="line" smooth="yes"/>
      <point x="435" y="957"/>
      <point x="462" y="937"/>
      <point x="462" y="903" type="curve" smooth="yes"/>
      <point x="462" y="849"/>
      <point x="424" y="813"/>
      <point x="324" y="813" type="curve" smooth="yes"/>
      <point x="261" y="813"/>
      <point x="190" y="833"/>
      <point x="138" y="856" type="curve" smooth="yes"/>
      <point x="119" y="865"/>
      <point x="91" y="846"/>
      <point x="74" y="801" type="curve" smooth="yes"/>
      <point x="57" y="754"/>
      <point x="63" y="726"/>
      <point x="89" y="714" type="curve" smooth="yes"/>
      <point x="147" y="687"/>
      <point x="240" y="669"/>
      <point x="322" y="669" type="curve" smooth="yes"/>
      <point x="574" y="669"/>
      <point x="636" y="793"/>
      <point x="636" y="897" type="curve" smooth="yes"/>
      <point x="636" y="957"/>
      <point x="604" y="1004"/>
      <point x="550" y="1029" type="curve"/>
      <point x="635" y="1063"/>
      <point x="681" y="1122"/>
      <point x="681" y="1208" type="curve" smooth="yes"/>
      <point x="681" y="1318"/>
      <point x="595" y="1394"/>
      <point x="433" y="1394" type="curve" smooth="yes"/>
    </contour>
    <contour>
      <point x="1013" y="503"/>
      <point x="977" y="490"/>
      <point x="955" y="466" type="curve" smooth="yes"/>
      <point x="574" y="83" type="line" smooth="yes"/>
      <point x="557" y="66"/>
      <point x="550" y="51"/>
      <point x="550" y="30" type="curve" smooth="yes"/>
      <point x="550" y="-17"/>
      <point x="570" y="-63"/>
      <point x="597" y="-63" type="curve" smooth="yes"/>
      <point x="888" y="-63" type="line"/>
      <point x="867" y="-184" type="line" smooth="yes"/>
      <point x="862" y="-210"/>
      <point x="885" y="-224"/>
      <point x="951" y="-224" type="curve" smooth="yes"/>
      <point x="1010" y="-224"/>
      <point x="1027" y="-210"/>
      <point x="1032" y="-184" type="curve" smooth="yes"/>
      <point x="1054" y="-63" type="line"/>
      <point x="1128" y="-63" type="line" smooth="yes"/>
      <point x="1159" y="-63"/>
      <point x="1176" y="-42"/>
      <point x="1185" y="8" type="curve" smooth="yes"/>
      <point x="1193" y="57"/>
      <point x="1185" y="79"/>
      <point x="1154" y="79" type="curve" smooth="yes"/>
      <point x="1078" y="79" type="line"/>
      <point x="1145" y="457" type="line" smooth="yes"/>
      <point x="1150" y="484"/>
      <point x="1122" y="503"/>
      <point x="1061" y="503" type="curve" smooth="yes"/>
    </contour>
    <contour>
      <point x="913" y="79" type="line"/>
      <point x="763" y="79" type="line"/>
      <point x="965" y="291" type="line"/>
    </contour>
    <contour>
      <point x="91" y="329" type="line" smooth="yes"/>
      <point x="61" y="313"/>
      <point x="58" y="286"/>
      <point x="80" y="240" type="curve" smooth="yes"/>
      <point x="102" y="194"/>
      <point x="124" y="188"/>
      <point x="149" y="200" type="curve" smooth="yes"/>
      <point x="1178" y="721" type="line" smooth="yes"/>
      <point x="1208" y="737"/>
      <point x="1211" y="764"/>
      <point x="1189" y="810" type="curve" smooth="yes"/>
      <point x="1167" y="856"/>
      <point x="1145" y="862"/>
      <point x="1120" y="850" type="curve" smooth="yes"/>
    </contour>
  </outline>
</glyph>
<glyph name="questiondown" format="1">
  <advance width="1228"/>
  <unicode hex="00BF"/>
  <outline>
    <contour>
      <point x="586" y="505"/>
      <point x="562" y="488"/>
      <point x="553" y="457" type="curve" smooth="yes"/>
      <point x="530" y="376" type="line"/>
      <point x="368" y="335"/>
      <point x="262" y="283"/>
      <point x="204" y="175" type="curve" smooth="yes"/>
      <point x="176" y="123"/>
      <point x="162" y="57"/>
      <point x="162" y="-3" type="curve" smooth="yes"/>
      <point x="162" y="-174"/>
      <point x="289" y="-285"/>
      <point x="527" y="-285" type="curve" smooth="yes"/>
      <point x="640" y="-285"/>
      <point x="757" y="-256"/>
      <point x="872" y="-207" type="curve" smooth="yes"/>
      <point x="901" y="-195"/>
      <point x="919" y="-173"/>
      <point x="924" y="-146" type="curve" smooth="yes"/>
      <point x="961" y="64" type="line" smooth="yes"/>
      <point x="969" y="109"/>
      <point x="935" y="127"/>
      <point x="850" y="127" type="curve" smooth="yes"/>
      <point x="765" y="127"/>
      <point x="739" y="109"/>
      <point x="731" y="64" type="curve" smooth="yes"/>
      <point x="713" y="-38" type="line"/>
      <point x="663" y="-56"/>
      <point x="609" y="-68"/>
      <point x="555" y="-68" type="curve" smooth="yes"/>
      <point x="463" y="-68"/>
      <point x="418" y="-34"/>
      <point x="418" y="28" type="curve" smooth="yes"/>
      <point x="418" y="53"/>
      <point x="424" y="77"/>
      <point x="433" y="95" type="curve" smooth="yes"/>
      <point x="456" y="141"/>
      <point x="504" y="167"/>
      <point x="584" y="180" type="curve" smooth="yes"/>
      <point x="697" y="198" type="line" smooth="yes"/>
      <point x="723" y="202"/>
      <point x="734" y="223"/>
      <point x="736" y="249" type="curve" smooth="yes"/>
      <point x="755" y="457" type="line" smooth="yes"/>
      <point x="758" y="488"/>
      <point x="740" y="505"/>
      <point x="663" y="505" type="curve" smooth="yes"/>
    </contour>
    <contour>
      <point x="616" y="946"/>
      <point x="524" y="863"/>
      <point x="524" y="753" type="curve" smooth="yes"/>
      <point x="524" y="671"/>
      <point x="587" y="603"/>
      <point x="674" y="603" type="curve" smooth="yes"/>
      <point x="776" y="603"/>
      <point x="869" y="686"/>
      <point x="869" y="795" type="curve" smooth="yes"/>
      <point x="869" y="878"/>
      <point x="806" y="946"/>
      <point x="718" y="946" type="curve" smooth="yes"/>
    </contour>
  </outline>
</glyph>
<glyph name="multiply" format="1">
  <advance width="1228"/>
  <unicode hex="00D7"/>
  <outline>
    <contour>
      <point x="976" y="987"/>
      <point x="951" y="990"/>
      <point x="916" y="961" type="curve" smooth="yes"/>
      <point x="227" y="377" type="line" smooth="yes"/>
      <point x="193" y="348"/>
      <point x="190" y="322"/>
      <point x="251" y="249" type="curve" smooth="yes"/>
      <point x="312" y="177"/>
      <point x="337" y="175"/>
      <point x="371" y="204" type="curve" smooth="yes"/>
      <point x="1060" y="788" type="line" smooth="yes"/>
      <point x="1095" y="817"/>
      <point x="1098" y="842"/>
      <point x="1037" y="915" type="curve" smooth="yes"/>
    </contour>
    <contour>
      <point x="277" y="874"/>
      <point x="275" y="849"/>
      <point x="304" y="815" type="curve" smooth="yes"/>
      <point x="812" y="206" type="line" smooth="yes"/>
      <point x="841" y="171"/>
      <point x="866" y="168"/>
      <point x="939" y="229" type="curve" smooth="yes"/>
      <point x="1011" y="290"/>
      <point x="1014" y="315"/>
      <point x="985" y="350" type="curve" smooth="yes"/>
      <point x="477" y="959" type="line" smooth="yes"/>
      <point x="448" y="993"/>
      <point x="422" y="996"/>
      <point x="349" y="935" type="curve" smooth="yes"/>
    </contour>
  </outline>
</glyph>
<glyph name="divide" format="1">
  <advance width="1228"/>
  <unicode hex="00F7"/>
  <outline>
    <contour>
      <point x="526" y="340"/>
      <point x="486" y="322"/>
      <point x="478" y="277" type="curve" smooth="yes"/>
      <point x="452" y="133" type="line" smooth="yes"/>
      <point x="445" y="88"/>
      <point x="478" y="70"/>
      <point x="566" y="70" type="curve" smooth="yes"/>
      <point x="654" y="70"/>
      <point x="695" y="88"/>
      <point x="702" y="133" type="curve" smooth="yes"/>
      <point x="728" y="277" type="line" smooth="yes"/>
      <point x="736" y="322"/>
      <point x="702" y="340"/>
      <point x="614" y="340" type="curve" smooth="yes"/>
    </contour>
    <contour>
      <point x="639" y="1095"/>
      <point x="599" y="1077"/>
      <point x="591" y="1032" type="curve" smooth="yes"/>
      <point x="566" y="888" type="line" smooth="yes"/>
      <point x="558" y="843"/>
      <point x="591" y="825"/>
      <point x="679" y="825" type="curve" smooth="yes"/>
      <point x="767" y="825"/>
      <point x="808" y="843"/>
      <point x="816" y="888" type="curve" smooth="yes"/>
      <point x="841" y="1032" type="line" smooth="yes"/>
      <point x="849" y="1077"/>
      <point x="815" y="1095"/>
      <point x="727" y="1095" type="curve" smooth="yes"/>
    </contour>
    <component base="minus"/>
  </outline>
</glyph>
<glyph name="oslash" format="1">
  <advance width="1228"/>
  <unicode hex="00F8"/>
  <outline>
    <contour>
      <point x="70" y="90" type="line" smooth="yes"/>
      <point x="34" y="59"/>
      <point x="29" y="32"/>
      <point x="74" y="-20" type="curve" smooth="yes"/>
      <point x="119" y="-72"/>
      <point x="144" y="-72"/>
      <point x="182" y="-39" type="curve" smooth="yes"/>
      <point x="1180" y="834" type="line" smooth="yes"/>
      <point x="1216" y="865"/>
      <point x="1221" y="892"/>
      <point x="1176" y="944" type="curve" smooth="yes"/>
      <point x="1131" y="996"/>
      <point x="1106" y="996"/>
      <point x="1068" y="963" type="curve" smooth="yes"/>
    </contour>
    <component base="o"/>
  </outline>
</glyph>
<glyph name="thorn" format="1">
  <advance width="1228"/>
  <unicode hex="00FE"/>
  <outline>
    <contour>
      <point x="271" y="1312" type="line" smooth="yes"/>
      <point x="226" y="1312"/>
      <point x="205" y="1294"/>
      <point x="190" y="1209" type="curve" smooth="yes"/>
      <point x="175" y="1124"/>
      <point x="190" y="1107"/>
      <point x="235" y="1107" type="curve" smooth="yes"/>
      <point x="322" y="1107" type="line"/>
      <point x="94" y="-183" type="line"/>
      <point x="7" y="-183" type="line" smooth="yes"/>
      <point x="-38" y="-183"/>
      <point x="-59" y="-201"/>
      <point x="-73" y="-286" type="curve" smooth="yes"/>
      <point x="-88" y="-371"/>
      <point x="-73" y="-388"/>
      <point x="-29" y="-388" type="curve" smooth="yes"/>
      <point x="475" y="-388" type="line" smooth="yes"/>
      <point x="520" y="-388"/>
      <point x="541" y="-371"/>
      <point x="556" y="-286" type="curve" smooth="yes"/>
      <point x="571" y="-201"/>
      <point x="556" y="-183"/>
      <point x="511" y="-183" type="curve" smooth="yes"/>
      <point x="344" y="-183" type="line"/>
      <point x="394" y="100" type="line"/>
      <point x="450" y="25"/>
      <point x="540" y="-22"/>
      <point x="646" y="-22" type="curve" smooth="yes"/>
      <point x="992" y="-22"/>
      <point x="1157" y="292"/>
      <point x="1157" y="544" type="curve" smooth="yes"/>
      <point x="1157" y="780"/>
      <point x="1018" y="946"/>
      <point x="796" y="946" type="curve" smooth="yes"/>
      <point x="695" y="946"/>
      <point x="605" y="904"/>
      <point x="523" y="833" type="curve"/>
      <point x="597" y="1249" type="line" smooth="yes"/>
      <point x="605" y="1294"/>
      <point x="590" y="1312"/>
      <point x="545" y="1312" type="curve" smooth="yes"/>
    </contour>
    <contour>
      <point x="831" y="719"/>
      <point x="891" y="648"/>
      <point x="891" y="533" type="curve" smooth="yes"/>
      <point x="891" y="404"/>
      <point x="818" y="205"/>
      <point x="636" y="205" type="curve" smooth="yes"/>
      <point x="527" y="205"/>
      <point x="445" y="274"/>
      <point x="445" y="402" type="curve" smooth="yes"/>
      <point x="445" y="549"/>
      <point x="546" y="719"/>
      <point x="726" y="719" type="curve" smooth="yes"/>
    </contour>
  </outline>
</glyph>
<glyph name="OE" format="1">
  <advance width="1228"/>
  <unicode hex="0152"/>
  <outline>
    <contour>
      <point x="723" y="1187" type="line" smooth="yes"/>
      <point x="519" y="1187"/>
      <point x="355" y="1113"/>
      <point x="244" y="967" type="curve" smooth="yes"/>
      <point x="136" y="826"/>
      <point x="87" y="615"/>
      <point x="87" y="459" type="curve" smooth="yes"/>
      <point x="87" y="171"/>
      <point x="252" y="0"/>
      <point x="534" y="0" type="curve" smooth="yes"/>
      <point x="1035" y="0" type="line" smooth="yes"/>
      <point x="1081" y="0"/>
      <point x="1103" y="19"/>
      <point x="1111" y="65" type="curve" smooth="yes"/>
      <point x="1168" y="387" type="line" smooth="yes"/>
      <point x="1176" y="432"/>
      <point x="1160" y="450"/>
      <point x="1075" y="450" type="curve" smooth="yes"/>
      <point x="990" y="450"/>
      <point x="956" y="432"/>
      <point x="948" y="387" type="curve" smooth="yes"/>
      <point x="917" y="215" type="line"/>
      <point x="737" y="215" type="line"/>
      <point x="790" y="514" type="line"/>
      <point x="904" y="514" type="line" smooth="yes"/>
      <point x="949" y="514"/>
      <point x="971" y="536"/>
      <point x="986" y="621" type="curve" smooth="yes"/>
      <point x="1001" y="706"/>
      <point x="987" y="729"/>
      <point x="942" y="729" type="curve" smooth="yes"/>
      <point x="828" y="729" type="line"/>
      <point x="871" y="972" type="line"/>
      <point x="1041" y="972" type="line"/>
      <point x="1019" y="850" type="line" smooth="yes"/>
      <point x="1011" y="805"/>
      <point x="1026" y="787"/>
      <point x="1106" y="787" type="curve" smooth="yes"/>
      <point x="1186" y="787"/>
      <point x="1221" y="805"/>
      <point x="1229" y="850" type="curve" smooth="yes"/>
      <point x="1277" y="1122" type="line" smooth="yes"/>
      <point x="1285" y="1168"/>
      <point x="1270" y="1187"/>
      <point x="1224" y="1187" type="curve" smooth="yes"/>
    </contour>
    <contour>
      <point x="507" y="215" type="line"/>
      <point x="397" y="224"/>
      <point x="325" y="307"/>
      <point x="325" y="469" type="curve" smooth="yes"/>
      <point x="325" y="590"/>
      <point x="361" y="742"/>
      <point x="430" y="840" type="curve" smooth="yes"/>
      <point x="487" y="923"/>
      <point x="561" y="966"/>
      <point x="641" y="972" type="curve"/>
    </contour>
  </outline>
</glyph>
<glyph name="Tbar" format="1">
  <advance width="1228"/>
  <unicode hex="0166"/>
  <outline>
    <contour>
      <point x="302" y="1187" type="line" smooth="yes"/>
      <point x="256" y="1187"/>
      <point x="233" y="1168"/>
      <point x="225" y="1122" type="curve" smooth="yes"/>
      <point x="151" y="700" type="line" smooth="yes"/>
      <point x="143" y="655"/>
      <point x="163" y="637"/>
      <point x="238" y="637" type="curve" smooth="yes"/>
      <point x="313" y="637"/>
      <point x="353" y="655"/>
      <point x="361" y="700" type="curve" smooth="yes"/>
      <point x="409" y="972" type="line"/>
      <point x="590" y="972" type="line"/>
      <point x="518" y="565" type="line"/>
      <point x="362" y="565" type="line" smooth="yes"/>
      <point x="317" y="565"/>
      <point x="296" y="547"/>
      <point x="281" y="462" type="curve" smooth="yes"/>
      <point x="266" y="377"/>
      <point x="281" y="360"/>
      <point x="326" y="360" type="curve" smooth="yes"/>
      <point x="482" y="360" type="line"/>
      <point x="455" y="205" type="line"/>
      <point x="249" y="205" type="line" smooth="yes"/>
      <point x="204" y="205"/>
      <point x="182" y="187"/>
      <point x="167" y="102" type="curve" smooth="yes"/>
      <point x="152" y="17"/>
      <point x="168" y="0"/>
      <point x="213" y="0" type="curve" smooth="yes"/>
      <point x="895" y="0" type="line" smooth="yes"/>
      <point x="940" y="0"/>
      <point x="960" y="17"/>
      <point x="975" y="102" type="curve" smooth="yes"/>
      <point x="990" y="187"/>
      <point x="976" y="205"/>
      <point x="931" y="205" type="curve" smooth="yes"/>
      <point x="705" y="205" type="line"/>
      <point x="732" y="360" type="line"/>
      <point x="888" y="360" type="line" smooth="yes"/>
      <point x="933" y="360"/>
      <point x="954" y="377"/>
      <point x="969" y="462" type="curve" smooth="yes"/>
      <point x="984" y="547"/>
      <point x="969" y="565"/>
      <point x="924" y="565" type="curve" smooth="yes"/>
      <point x="768" y="565" type="line"/>
      <point x="840" y="972" type="line"/>
      <point x="1021" y="972" type="line"/>
      <point x="973" y="700" type="line" smooth="yes"/>
      <point x="965" y="655"/>
      <point x="985" y="637"/>
      <point x="1060" y="637" type="curve" smooth="yes"/>
      <point x="1135" y="637"/>
      <point x="1175" y="655"/>
      <point x="1183" y="700" type="curve" smooth="yes"/>
      <point x="1257" y="1122" type="line" smooth="yes"/>
      <point x="1265" y="1168"/>
      <point x="1250" y="1187"/>
      <point x="1204" y="1187" type="curve" smooth="yes"/>
    </contour>
  </outline>
</glyph>
<glyph name="dotlessj" format="1">
  <advance width="1228"/>
  <unicode hex="0237"/>
  <outline>
    <contour>
      <point x="382" y="924" type="line" smooth="yes"/>
      <point x="337" y="924"/>
      <point x="316" y="906"/>
      <point x="301" y="821" type="curve" smooth="yes"/>
      <point x="286" y="736"/>
      <point x="301" y="719"/>
      <point x="346" y="719" type="curve" smooth="yes"/>
      <point x="729" y="719" type="line"/>
      <point x="600" y="-17" type="line" smooth="yes"/>
      <point x="580" y="-132"/>
      <point x="523" y="-183"/>
      <point x="441" y="-183" type="curve" smooth="yes"/>
      <point x="373" y="-183"/>
      <point x="285" y="-144"/>
      <point x="204" y="-105" type="curve" smooth="yes"/>
      <point x="166" y="-87"/>
      <point x="130" y="-94"/>
      <point x="88" y="-173" type="curve" smooth="yes"/>
      <point x="46" y="-252"/>
      <point x="57" y="-288"/>
      <point x="97" y="-310" type="curve" smooth="yes"/>
      <point x="207" y="-371"/>
      <point x="328" y="-410"/>
      <point x="443" y="-410" type="curve" smooth="yes"/>
      <point x="675" y="-410"/>
      <point x="801" y="-289"/>
      <point x="845" y="-40" type="curve" smooth="yes"/>
      <point x="1004" y="861" type="line" smooth="yes"/>
      <point x="1012" y="906"/>
      <point x="997" y="924"/>
      <point x="952" y="924" type="curve" smooth="yes"/>
    </contour>
  </outline>
</glyph>
<glyph name="caron" format="1">
  <advance width="1228"/>
  <unicode hex="02C7"/>
  <outline>
    <contour>
      <point x="753" y="1250" type="line"/>
      <point x="498" y="1384" type="line" smooth="yes"/>
      <point x="468" y="1400"/>
      <point x="443" y="1384"/>
      <point x="426" y="1358" type="curve" smooth="yes"/>
      <point x="409" y="1332"/>
      <point x="409" y="1306"/>
      <point x="428" y="1286" type="curve" smooth="yes"/>
      <point x="679" y="1025" type="line" smooth="yes"/>
      <point x="691" y="1013"/>
      <point x="710" y="1007"/>
      <point x="731" y="1007" type="curve" smooth="yes"/>
      <point x="752" y="1007"/>
      <point x="772" y="1012"/>
      <point x="789" y="1025" type="curve" smooth="yes"/>
      <point x="1112" y="1286" type="line" smooth="yes"/>
      <point x="1136" y="1306"/>
      <point x="1134" y="1328"/>
      <point x="1120" y="1354" type="curve" smooth="yes"/>
      <point x="1104" y="1384"/>
      <point x="1083" y="1396"/>
      <point x="1056" y="1384" type="curve" smooth="yes"/>
    </contour>
  </outline>
</glyph>
<glyph name="pi" format="1">
  <advance width="1228"/>
  <unicode hex="03C0"/>
  <outline>
    <contour>
      <point x="226" y="924" type="line" smooth="yes"/>
      <point x="181" y="924"/>
      <point x="159" y="901"/>
      <point x="143" y="811" type="curve" smooth="yes"/>
      <point x="127" y="721"/>
      <point x="141" y="699"/>
      <point x="186" y="699" type="curve" smooth="yes"/>
      <point x="269" y="699" type="line"/>
      <point x="157" y="63" type="line" smooth="yes"/>
      <point x="149" y="18"/>
      <point x="164" y="0"/>
      <point x="209" y="0" type="curve" smooth="yes"/>
      <point x="333" y="0" type="line" smooth="yes"/>
      <point x="378" y="0"/>
      <point x="399" y="18"/>
      <point x="407" y="63" type="curve" smooth="yes"/>
      <point x="519" y="699" type="line"/>
      <point x="815" y="699" type="line"/>
      <point x="703" y="63" type="line" smooth="yes"/>
      <point x="695" y="18"/>
      <point x="710" y="0"/>
      <point x="755" y="0" type="curve" smooth="yes"/>
      <point x="879" y="0" type="line" smooth="yes"/>
      <point x="924" y="0"/>
      <point x="945" y="18"/>
      <point x="953" y="63" type="curve" smooth="yes"/>
      <point x="1065" y="699" type="line"/>
      <point x="1148" y="699" type="line" smooth="yes"/>
      <point x="1193" y="699"/>
      <point x="1215" y="721"/>
      <point x="1231" y="811" type="curve" smooth="yes"/>
      <point x="1247" y="901"/>
      <point x="1233" y="924"/>
      <point x="1188" y="924" type="curve" smooth="yes"/>
    </contour>
  </outline>
</glyph>
<glyph name="bullet" format="1">
  <advance width="1228"/>
  <unicode hex="2022"/>
  <outline>
    <contour>
      <point x="506" y="858"/>
      <point x="435" y="827"/>
      <point x="421" y="750" type="curve" smooth="yes"/>
      <point x="363" y="418" type="line" smooth="yes"/>
      <point x="349" y="341"/>
      <point x="430" y="310"/>
      <point x="609" y="310" type="curve" smooth="yes"/>
      <point x="788" y="310"/>
      <point x="859" y="341"/>
      <point x="873" y="418" type="curve" smooth="yes"/>
      <point x="931" y="750" type="line" smooth="yes"/>
      <point x="945" y="827"/>
      <point x="864" y="858"/>
      <point x="685" y="858" type="curve" smooth="yes"/>
    </contour>
  </outline>
</glyph>
<glyph name="ellipsis" format="1">
  <advance width="1228"/>
  <unicode hex="2026"/>
  <outline>
    <contour>
      <point x="901" y="290"/>
      <point x="867" y="272"/>
      <point x="859" y="227" type="curve" smooth="yes"/>
      <point x="828" y="53" type="line" smooth="yes"/>
      <point x="820" y="8"/>
      <point x="860" y="-10"/>
      <point x="948" y="-10" type="curve" smooth="yes"/>
      <point x="1036" y="-10"/>
      <point x="1070" y="8"/>
      <point x="1078" y="53" type="curve" smooth="yes"/>
      <point x="1109" y="227" type="line" smooth="yes"/>
      <point x="1117" y="272"/>
      <point x="1077" y="290"/>
      <point x="989" y="290" type="curve" smooth="yes"/>
    </contour>
    <contour>
      <point x="101" y="290"/>
      <point x="67" y="272"/>
      <point x="59" y="227" type="curve" smooth="yes"/>
      <point x="28" y="53" type="line" smooth="yes"/>
      <point x="20" y="8"/>
      <point x="60" y="-10"/>
      <point x="148" y="-10" type="curve" smooth="yes"/>
      <point x="236" y="-10"/>
      <point x="270" y="8"/>
      <point x="278" y="53" type="curve" smooth="yes"/>
      <point x="309" y="227" type="line" smooth="yes"/>
      <point x="317" y="272"/>
      <point x="277" y="290"/>
      <point x="189" y="290" type="curve" smooth="yes"/>
    </contour>
    <contour>
      <point x="501" y="290"/>
      <point x="467" y="272"/>
      <point x="459" y="227" type="curve" smooth="yes"/>
      <point x="428" y="53" type="line" smooth="yes"/>
      <point x="420" y="8"/>
      <point x="460" y="-10"/>
      <point x="548" y="-10" type="curve" smooth="yes"/>
      <point x="636" y="-10"/>
      <point x="670" y="8"/>
      <point x="678" y="53" type="curve" smooth="yes"/>
      <point x="709" y="227" type="line" smooth="yes"/>
      <point x="717" y="272"/>
      <point x="677" y="290"/>
      <point x="589" y="290" type="curve" smooth="yes"/>
    </contour>
  </outline>
</glyph>
<glyph name="perthousand" format="1">
  <advance width="1228"/>
  <unicode hex="2030"/>
  <outline>
    <contour>
      <point x="81" y="249" type="line" smooth="yes"/>
      <point x="43" y="218"/>
      <point x="31" y="187"/>
      <point x="77" y="129" type="curve" smooth="yes"/>
      <point x="123" y="72"/>
      <point x="153" y="75"/>
      <point x="191" y="106" type="curve" smooth="yes"/>
      <point x="1215" y="940" type="line" smooth="yes"/>
      <point x="1253" y="971"/>
      <point x="1265" y="1002"/>
      <point x="1219" y="1060" type="curve" smooth="yes"/>
      <point x="1173" y="1117"/>
      <point x="1143" y="1114"/>
      <point x="1105" y="1083" type="curve" smooth="yes"/>
    </contour>
    <contour>
      <point x="971" y="347"/>
      <point x="1003" y="314"/>
      <point x="1003" y="266" type="curve" smooth="yes"/>
      <point x="1003" y="203"/>
      <point x="958" y="157"/>
      <point x="897" y="157" type="curve" smooth="yes"/>
      <point x="845" y="157"/>
      <point x="813" y="190"/>
      <point x="813" y="238" type="curve" smooth="yes"/>
      <point x="813" y="301"/>
      <point x="858" y="347"/>
      <point x="919" y="347" type="curve" smooth="yes"/>
    </contour>
    <contour>
      <point x="229" y="1209"/>
      <point x="110" y="1075"/>
      <point x="110" y="908" type="curve" smooth="yes"/>
      <point x="110" y="764"/>
      <point x="209" y="661"/>
      <point x="362" y="661" type="curve" smooth="yes"/>
      <point x="545" y="661"/>
      <point x="664" y="795"/>
      <point x="664" y="962" type="curve" smooth="yes"/>
      <point x="664" y="1106"/>
      <point x="565" y="1209"/>
      <point x="412" y="1209" type="curve" smooth="yes"/>
    </contour>
    <contour>
      <point x="450" y="1030"/>
      <point x="482" y="997"/>
      <point x="482" y="949" type="curve" smooth="yes"/>
      <point x="482" y="886"/>
      <point x="437" y="840"/>
      <point x="376" y="840" type="curve" smooth="yes"/>
      <point x="324" y="840"/>
      <point x="292" y="873"/>
      <point x="292" y="921" type="curve" smooth="yes"/>
      <point x="292" y="984"/>
      <point x="337" y="1030"/>
      <point x="398" y="1030" type="curve" smooth="yes"/>
    </contour>
    <contour>
      <point x="1219" y="526"/>
      <point x="1155" y="501"/>
      <point x="1106" y="460" type="curve"/>
      <point x="1064" y="502"/>
      <point x="1005" y="526"/>
      <point x="933" y="526" type="curve" smooth="yes"/>
      <point x="750" y="526"/>
      <point x="631" y="392"/>
      <point x="631" y="225" type="curve" smooth="yes"/>
      <point x="631" y="81"/>
      <point x="730" y="-22"/>
      <point x="883" y="-22" type="curve" smooth="yes"/>
      <point x="959" y="-22"/>
      <point x="1023" y="3"/>
      <point x="1072" y="44" type="curve"/>
      <point x="1114" y="2"/>
      <point x="1173" y="-22"/>
      <point x="1245" y="-22" type="curve" smooth="yes"/>
      <point x="1428" y="-22"/>
      <point x="1547" y="112"/>
      <point x="1547" y="279" type="curve" smooth="yes"/>
      <point x="1547" y="423"/>
      <point x="1448" y="526"/>
      <point x="1295" y="526" type="curve" smooth="yes"/>
    </contour>
    <contour>
      <point x="1333" y="347"/>
      <point x="1365" y="314"/>
      <point x="1365" y="266" type="curve" smooth="yes"/>
      <point x="1365" y="203"/>
      <point x="1320" y="157"/>
      <point x="1259" y="157" type="curve" smooth="yes"/>
      <point x="1207" y="157"/>
      <point x="1175" y="190"/>
      <point x="1175" y="238" type="curve" smooth="yes"/>
      <point x="1175" y="301"/>
      <point x="1220" y="347"/>
      <point x="1281" y="347" type="curve" smooth="yes"/>
    </contour>
  </outline>
</glyph>
<glyph name="fraction" format="1">
  <advance width="1228"/>
  <unicode hex="2044"/>
  <outline>
    <contour>
      <point x="91" y="329" type="line" smooth="yes"/>
      <point x="61" y="313"/>
      <point x="58" y="286"/>
      <point x="80" y="240" type="curve" smooth="yes"/>
      <point x="102" y="194"/>
      <point x="124" y="188"/>
      <point x="149" y="200" type="curve" smooth="yes"/>
      <point x="1178" y="721" type="line" smooth="yes"/>
      <point x="1208" y="737"/>
      <point x="1211" y="764"/>
      <point x="1189" y="810" type="curve" smooth="yes"/>
      <point x="1167" y="856"/>
      <point x="1145" y="862"/>
      <point x="1120" y="850" type="curve" smooth="yes"/>
    </contour>
  </outline>
</glyph>
<glyph name="product" format="1">
  <advance width="1228"/>
  <unicode hex="220F"/>
  <outline>
    <contour>
      <point x="362" y="1187" type="line" smooth="yes"/>
      <point x="317" y="1187"/>
      <point x="296" y="1169"/>
      <point x="288" y="1124" type="curve" smooth="yes"/>
      <point x="101" y="63" type="line" smooth="yes"/>
      <point x="93" y="18"/>
      <point x="108" y="0"/>
      <point x="153" y="0" type="curve" smooth="yes"/>
      <point x="277" y="0" type="line" smooth="yes"/>
      <point x="322" y="0"/>
      <point x="343" y="18"/>
      <point x="351" y="63" type="curve" smooth="yes"/>
      <point x="508" y="952" type="line"/>
      <point x="916" y="952" type="line"/>
      <point x="759" y="63" type="line" smooth="yes"/>
      <point x="751" y="18"/>
      <point x="766" y="0"/>
      <point x="811" y="0" type="curve" smooth="yes"/>
      <point x="935" y="0" type="line" smooth="yes"/>
      <point x="980" y="0"/>
      <point x="1001" y="18"/>
      <point x="1009" y="63" type="curve" smooth="yes"/>
      <point x="1196" y="1124" type="line" smooth="yes"/>
      <point x="1204" y="1169"/>
      <point x="1189" y="1187"/>
      <point x="1144" y="1187" type="curve" smooth="yes"/>
    </contour>
  </outline>
</glyph>
<glyph name="approxequal" format="1">
  <advance width="1228"/>
  <unicode hex="2248"/>
  <outline>
    <contour>
      <point x="427" y="970"/>
      <point x="338" y="944"/>
      <point x="232" y="861" type="curve" smooth="yes"/>
      <point x="209" y="843"/>
      <point x="203" y="797"/>
      <point x="212" y="757" type="curve" smooth="yes"/>
      <point x="223" y="708"/>
      <point x="254" y="666"/>
      <point x="300" y="690" type="curve" smooth="yes"/>
      <point x="363" y="723"/>
      <point x="420" y="735"/>
      <point x="473" y="735" type="curve" smooth="yes"/>
      <point x="612" y="735"/>
      <point x="727" y="652"/>
      <point x="868" y="652" type="curve" smooth="yes"/>
      <point x="948" y="652"/>
      <point x="1036" y="679"/>
      <point x="1142" y="761" type="curve" smooth="yes"/>
      <point x="1167" y="781"/>
      <point x="1171" y="831"/>
      <point x="1160" y="873" type="curve" smooth="yes"/>
      <point x="1148" y="918"/>
      <point x="1117" y="954"/>
      <point x="1074" y="932" type="curve" smooth="yes"/>
      <point x="1012" y="900"/>
      <point x="956" y="888"/>
      <point x="903" y="888" type="curve" smooth="yes"/>
      <point x="764" y="888"/>
      <point x="649" y="970"/>
      <point x="507" y="970" type="curve" smooth="yes"/>
    </contour>
    <contour>
      <point x="345" y="510"/>
      <point x="256" y="484"/>
      <point x="150" y="401" type="curve" smooth="yes"/>
      <point x="127" y="383"/>
      <point x="121" y="337"/>
      <point x="130" y="297" type="curve" smooth="yes"/>
      <point x="141" y="248"/>
      <point x="172" y="206"/>
      <point x="218" y="230" type="curve" smooth="yes"/>
      <point x="281" y="263"/>
      <point x="338" y="275"/>
      <point x="391" y="275" type="curve" smooth="yes"/>
      <point x="530" y="275"/>
      <point x="645" y="192"/>
      <point x="786" y="192" type="curve" smooth="yes"/>
      <point x="866" y="192"/>
      <point x="954" y="219"/>
      <point x="1060" y="301" type="curve" smooth="yes"/>
      <point x="1085" y="321"/>
      <point x="1089" y="371"/>
      <point x="1078" y="413" type="curve" smooth="yes"/>
      <point x="1066" y="458"/>
      <point x="1035" y="494"/>
      <point x="992" y="472" type="curve" smooth="yes"/>
      <point x="930" y="440"/>
      <point x="874" y="428"/>
      <point x="821" y="428" type="curve" smooth="yes"/>
      <point x="682" y="428"/>
      <point x="567" y="510"/>
      <point x="425" y="510" type="curve" smooth="yes"/>
    </contour>
  </outline>
</glyph>
<glyph name="emdash.alt2" format="1">
  <advance width="1228"/>
  <outline>
    <contour>
      <point x="99" y="695" type="line" smooth="yes"/>
      <point x="54" y="695"/>
      <point x="33" y="677"/>
      <point x="16" y="582" type="curve" smooth="yes"/>
      <point x="-1" y="487"/>
      <point x="14" y="470"/>
      <point x="59" y="470" type="curve" smooth="yes"/>
      <point x="2421" y="470" type="line" smooth="yes"/>
      <point x="2466" y="470"/>
      <point x="2487" y="487"/>
      <point x="2504" y="582" type="curve" smooth="yes"/>
      <point x="2521" y="677"/>
      <point x="2506" y="695"/>
      <point x="2461" y="695" type="curve" smooth="yes"/>
    </contour>
  </outline>
</glyph>
<glyph name="period.squat" format="1">
  <advance width="1228"/>
  <outline>
    <contour>
      <point x="478" y="330"/>
      <point x="434" y="312"/>
      <point x="426" y="267" type="curve" smooth="yes"/>
      <point x="388" y="53" type="line" smooth="yes"/>
      <point x="380" y="8"/>
      <point x="434" y="-10"/>
      <point x="550" y="-10" type="curve" smooth="yes"/>
      <point x="666" y="-10"/>
      <point x="710" y="8"/>
      <point x="718" y="53" type="curve" smooth="yes"/>
      <point x="756" y="267" type="line" smooth="yes"/>
      <point x="764" y="312"/>
      <point x="710" y="330"/>
      <point x="594" y="330" type="curve" smooth="yes"/>
    </contour>
  </outline>
</glyph>
